<svg xmlns="http://www.w3.org/2000/svg" width="48" height="48" viewBox="0 0 48 48">
  <g transform="translate(4.742 2) scale(0.067)">
    <path d="M 437.063 1.555 C 428.847 3.336, 420.950 7.340, 414.871 12.806 C 410.854 16.418, 408.351 20.526, 399.394 38.209 C 383.598 69.394, 375.726 80.477, 361.008 92.253 C 346.565 103.809, 328.994 111.412, 308.002 115.188 C 293.378 117.818, 253.302 118.732, 225 117.080 C 116.879 110.770, 113.079 110.781, 106.379 117.440 C 99.201 124.574, 99.775 147.611, 107.594 166.241 C 111.546 175.658, 117.466 185.385, 126.011 196.500 C 130.239 202, 135.603 208.975, 137.932 212 C 151.690 229.872, 169.053 253.641, 177.981 266.827 C 190.236 284.924, 198.814 293.597, 209.393 298.586 C 219.514 303.358, 226.912 305, 238.293 305 C 251.012 305, 258.537 303.063, 284.828 293.024 C 320.576 279.373, 328.170 276.804, 361.500 267.082 C 367.144 265.436, 371.386 263.679, 371.238 263.048 C 370.201 258.615, 369.968 240.144, 370.870 233.805 C 372.951 219.173, 377.143 209.598, 389.384 191.505 C 396.217 181.406, 426.532 140.381, 433.408 131.928 C 434.559 130.514, 436.625 127.849, 438 126.007 C 461.906 93.973, 489 71.971, 518.500 60.633 C 527.361 57.228, 540.479 54, 545.458 54 C 547.516 54, 548 53.515, 548 51.450 C 548 47.470, 545.588 43.738, 539.300 37.991 C 527.159 26.894, 500.683 12.075, 482.500 6.199 C 464.033 0.231, 449.853 -1.219, 437.063 1.555 M 533.301 66.529 C 509.872 72.727, 487.288 86.692, 466.833 107.629 C 456.569 118.134, 450.841 125.204, 428.859 154.500 C 389.584 206.842, 384.085 215.705, 380.969 231.692 C 379.599 238.723, 380.033 257.433, 381.603 259.003 C 382.314 259.714, 384.898 259.104, 389.893 257.044 C 399.467 253.096, 416.447 247.641, 432.287 243.423 C 448.750 239.041, 454.175 236.656, 458.452 231.922 C 463.813 225.987, 465.413 219.030, 464.636 205.022 C 462.661 169.416, 462.662 169.617, 464.426 161.688 C 466.875 150.681, 471.695 141.955, 481.728 130.368 C 512.848 94.426, 514.862 92.642, 521.250 95.352 C 523.038 96.110, 526.075 98.483, 528 100.625 C 541.503 115.650, 552.522 127.550, 553.192 127.830 C 554.110 128.214, 554.776 127.557, 561.639 119.500 C 575.921 102.734, 576.460 94.600, 564.338 78.721 C 561.726 75.299, 557.788 70.588, 555.586 68.250 C 551.994 64.436, 551.117 64.005, 547.042 64.048 C 544.544 64.074, 538.360 65.190, 533.301 66.529 M 507.323 118.750 C 486.045 141.854, 480.564 148.960, 476.945 158.136 C 474.425 164.525, 474.175 171.235, 475.420 199 C 476.383 220.483, 475.646 225.664, 470.324 234.844 C 464.458 244.962, 456.061 249.925, 436.279 254.967 C 429.023 256.816, 423.261 258.614, 423.476 258.961 C 423.691 259.308, 427.257 261.313, 431.401 263.417 C 441.411 268.498, 447.316 274.530, 452.039 284.500 C 459.315 299.859, 459.614 311.218, 453.603 343.992 L 450.212 362.484 452.662 367.320 C 456.186 374.273, 456.465 379.650, 454.152 396 C 449.952 425.699, 444.942 463.250, 441.962 487.377 C 439.041 511.031, 437.622 517.892, 434.320 524.327 C 432.081 528.690, 420.403 546.580, 413.862 555.667 C 410.628 560.159, 407.722 565.139, 407.403 566.733 C 405.575 575.876, 416.373 592.757, 444 623.946 C 458.926 640.797, 471.864 652.787, 478.678 656.086 C 486.655 659.948, 493.750 657.341, 497.962 649 C 501.982 641.039, 501.287 632.839, 495.968 625.500 C 486.966 613.078, 484.367 608.925, 480.713 601.129 C 474.070 586.952, 471.943 577.745, 471.326 560.500 C 470.273 531.027, 477.141 470.697, 487.606 417.500 C 491.786 396.249, 499.278 367.211, 509.534 332.500 C 523.272 286.005, 523.677 279.325, 515.280 237.600 C 510.894 215.802, 510.201 198.223, 513.287 187 C 515.978 177.214, 523.294 165.372, 535.250 151.453 C 541.163 144.570, 546 138.699, 546 138.406 C 546 137.564, 518.699 108, 517.922 108 C 517.537 108, 512.768 112.838, 507.323 118.750 M 71.500 130.443 C 40.149 141.956, 32.789 146.030, 21.697 158.010 C 10.219 170.408, 4.172 185.203, 3.311 203 C 2.657 216.528, 4.483 225.275, 10.601 237.913 C 14.594 246.163, 16.514 248.758, 24.371 256.522 C 37.810 269.803, 51.242 276.104, 69.225 277.563 C 84.343 278.790, 95.833 275.730, 133.500 260.449 C 143.950 256.210, 152.676 252.586, 152.891 252.397 C 153.106 252.207, 150.631 248.568, 147.391 244.310 C 144.151 240.052, 138.423 232.503, 134.661 227.534 C 130.900 222.565, 127.332 218.500, 126.733 218.500 C 126.134 218.500, 125.340 219.625, 124.968 221 C 119.310 241.946, 98.133 257.924, 75.960 257.979 C 56.494 258.027, 41.519 249.952, 30.910 233.687 C 24.820 224.350, 23.495 219.284, 23.534 205.500 C 23.565 194.736, 23.848 192.839, 26.282 187.084 C 31.888 173.825, 42.254 163.307, 55.315 157.626 C 62.254 154.607, 62.988 154.500, 76.753 154.500 L 91.005 154.500 90.420 146.500 C 90.098 142.100, 89.688 138.007, 89.508 137.405 C 89.329 136.802, 89.508 133.540, 89.907 130.155 C 90.398 125.991, 90.288 124.032, 89.566 124.100 C 88.980 124.155, 80.850 127.010, 71.500 130.443 M 432.292 374.750 C 430.206 376.813, 425.671 381.735, 422.214 385.688 C 418.757 389.642, 412.457 395.449, 408.214 398.592 C 392.974 409.884, 391.402 411.170, 384.340 418.129 C 372.590 429.709, 368.510 439.872, 368.736 457 C 368.915 470.522, 376.465 504.664, 385.949 534.837 C 390.537 549.434, 393.419 554, 398.044 554 C 400.531 554, 401.820 552.712, 407.801 544.250 C 417.612 530.371, 422.931 521.687, 425.068 516.064 C 427.003 510.970, 431.441 480.890, 437.544 431.500 C 439.515 415.550, 441.771 398.225, 442.558 393 C 444.554 379.744, 444.433 375.433, 442 373 C 439.077 370.077, 436.559 370.531, 432.292 374.750" stroke="none" fill="#ffffff" fill-rule="evenodd"/>
  </g>
</svg>
