<?xml version="1.0" standalone="no"?>
<!DOCTYPE svg PUBLIC "-//W3C//DTD SVG 20010904//EN"
 "http://www.w3.org/TR/2001/REC-SVG-20010904/DTD/svg10.dtd">
<svg version="1.0" xmlns="http://www.w3.org/2000/svg"
 width="175.000000pt" height="207.000000pt" viewBox="0 0 175.000000 207.000000"
 preserveAspectRatio="xMidYMid meet">
<g transform="translate(0.000000,207.000000) scale(0.100000,-0.100000)"
fill="currentColor" stroke="none">
<path d="M1220 1699 c-53 -16 -94 -50 -223 -183 l-118 -121 54 -11 c29 -6 59
-14 66 -18 9 -6 45 23 115 92 55 55 111 105 123 111 34 17 95 13 131 -9 52
-32 74 -75 70 -141 -5 -69 -21 -89 -230 -296 l-145 -143 -52 0 c-59 0 -82 10
-126 51 l-31 29 -37 -31 c-20 -17 -37 -39 -37 -49 0 -28 83 -95 141 -113 64
-21 112 -21 175 -1 42 14 74 41 235 204 215 217 232 244 232 356 0 118 -53
203 -162 259 -42 21 -133 28 -181 14z"/>
<path d="M805 1283 c-44 -13 -72 -37 -247 -211 -128 -129 -202 -211 -214 -237
-26 -62 -24 -178 5 -235 53 -104 140 -160 247 -161 101 -1 147 27 292 176 67
70 122 130 122 136 0 5 -12 9 -26 9 -14 0 -44 5 -68 11 l-42 10 -99 -100
c-123 -126 -164 -141 -257 -95 -57 29 -88 137 -56 197 15 28 322 347 357 369
14 10 44 18 66 18 42 0 70 -14 120 -62 l31 -28 39 40 c36 37 38 41 25 65 -29
55 -147 116 -219 114 -14 0 -48 -7 -76 -16z"/>
</g>
</svg>
