<svg width="826" height="98" viewBox="0 0 826 98" fill="none" xmlns="http://www.w3.org/2000/svg">
<path fill-rule="evenodd" clip-rule="evenodd" d="M133.636 0.986129L133.141 3.11535L128.606 7.50176L128.642 7.54012L127.171 8.89062L124.844 11.1422C121.472 12.6543 119.079 16.1419 119.008 20.2432C118.911 25.8049 123.118 30.3883 128.406 30.4806C131.689 30.5378 134.616 28.8501 136.387 26.2313L139.473 23.7804L141.978 21.5187L147.213 16.6565L148.809 16.6289L149.387 19.2698L149.564 29.3401L147.035 36.8067L143.414 42.7015L141.461 45.1219L136.443 44.4078L136.427 44.4056L127.339 44.247L127.312 44.2522L123.575 44.9822L123.557 44.9857L123.541 44.9915L119.794 46.2513L119.772 46.2588L119.751 46.2702L115.018 48.8568L113.207 49.5873L104.79 55.0349L95.3371 62.0912L86.9383 68.5989L74.3217 77.3008L66.959 82.1998L55.3687 88.7632L47.9874 92.6025L37.4145 96.497L34.7643 97.0731L33.4575 97.0956C31.5303 97.4881 29.5263 97.6788 27.4711 97.643C26.0815 97.6187 24.7188 97.4914 23.3909 97.2698L23.0624 97.2758L22.339 97.0729C21.2921 96.8558 20.2687 96.5798 19.2727 96.2479C8.01316 93.3224 -0.207324 83.0251 0.00398228 70.9193C0.251799 56.7222 12.0025 45.4149 26.25 45.6636C28.6551 45.7056 30.9773 46.0748 33.1753 46.727C38.7379 48.9272 45.1419 50.2347 51.9733 50.354C60.3779 50.5007 68.1986 48.8269 74.646 45.8565L73.8 47.6191L67.5195 53.56L57.5438 61.1556L52.8882 64.1222C52.8533 64.1432 52.819 64.1649 52.7856 64.1876L52.7756 64.1942C51.9542 64.7577 51.6151 65.8127 52.0202 66.7193C52.3615 67.4831 53.1349 67.9259 53.9502 67.9084L53.8111 67.9369C53.8375 68.0747 53.8627 68.2129 53.8868 68.3515L54.8762 67.7207L54.7116 67.7541C54.7399 67.7429 54.7682 67.7314 54.7963 67.7189C54.8928 67.6762 54.9843 67.6269 55.0712 67.5728L55.1255 67.562L60.2591 64.2897L69.7125 57.2334L75.1423 52.1387L75.133 52.1291L77.0008 50.3318L77.0381 50.214L81.228 46.43L86.9486 38.9085L91.0733 31.4142L93.5463 20.7677L96.626 14.352L101.311 8.43884L106.565 4.63644L112.892 1.34572L117.128 0.211839L129.362 0L133.636 0.986129ZM26.8073 59.458C20.3445 59.3452 15.0141 64.4745 14.9017 70.9144C14.7894 77.3543 19.9375 82.6662 26.4002 82.779C32.863 82.8918 38.1933 77.7628 38.3058 71.3229C38.4182 64.883 33.2701 59.5708 26.8073 59.458Z" fill="white" fill-opacity="0.96"/>
<path fill-rule="evenodd" clip-rule="evenodd" d="M132.631 47.5205C146.878 47.7692 158.232 59.2423 157.989 73.1467C157.746 87.0511 146 98.1213 131.752 97.8727C129.898 97.8403 128.093 97.6172 126.355 97.224L125.808 97.2144L117.336 94.897L106.232 90.9064L95.6411 88.01L87.1494 86.777L69.5965 86.4706L69.5969 86.4491L67.3059 86.4091L67.3106 86.1442L67.3996 86.0775C67.4099 86.0669 67.4216 86.0577 67.4349 86.0509L68.9267 84.9359C68.9399 84.9163 68.9563 84.8944 68.9732 84.8767C68.998 84.8509 69.0256 84.8232 69.0768 84.777C69.1078 84.7491 69.1372 84.7347 69.1581 84.7256C69.1698 84.7204 69.1699 84.7202 69.1741 84.7183C69.1741 84.7183 69.1765 84.7168 69.1779 84.7154C69.1813 84.7121 69.1855 84.7078 69.1914 84.7016C69.2014 84.6911 69.2208 84.6703 69.2438 84.6527C69.2724 84.6309 69.2881 84.613 69.325 84.5802C69.3437 84.5635 69.3615 84.551 69.3734 84.5425C69.3856 84.5337 69.3935 84.528 69.4018 84.5207C69.4419 84.4855 69.4692 84.4665 69.4973 84.448C69.5059 84.4424 69.5145 84.4371 69.5207 84.4333C69.5275 84.4293 69.5322 84.4265 69.5364 84.4238C69.5432 84.4195 69.5456 84.4172 69.5456 84.4172C69.5532 84.4092 69.5607 84.4023 69.5665 84.3968L69.5826 84.3812C69.5877 84.3724 69.5931 84.3632 69.5971 84.3562C69.5992 84.3524 69.6016 84.3484 69.6029 84.3461L69.6049 84.3423C69.6049 84.3423 69.6065 84.3399 69.6076 84.3382C69.6076 84.3382 69.6098 84.3347 69.6119 84.3319C69.6119 84.3319 69.6157 84.3269 69.6192 84.323C69.6211 84.3209 69.6246 84.3168 69.6293 84.3126C69.6293 84.3126 69.6321 84.311 69.6342 84.3093L69.6344 84.3017L71.9399 82.6835L72.1625 82.5175L72.1673 82.524L77.1759 79.0095L87.9464 71.6044L98.1853 64.1896L107.341 57.8412L114.873 53.0911L115.477 52.8567L118.959 51.0657C119.747 50.6058 120.563 50.1864 121.403 49.8092L121.732 49.6398C121.771 49.6198 121.813 49.6113 121.854 49.6114C125.149 48.2061 128.799 47.4536 132.631 47.5205ZM131.593 61.2871C125.13 61.1743 119.8 66.3036 119.687 72.7435C119.575 79.1833 124.723 84.4951 131.186 84.608C137.648 84.7208 142.979 79.5919 143.091 73.152C143.203 66.712 138.055 61.3999 131.593 61.2871Z" fill="white" fill-opacity="0.96"/>
<path d="M194.184 96.7643V9.49161H230.576C237.11 9.49161 242.579 10.4149 246.982 12.2615C251.414 14.1081 254.738 16.6933 256.954 20.0172C259.198 23.341 260.32 27.1905 260.32 31.5655C260.32 34.8893 259.624 37.8581 258.232 40.4717C256.84 43.0569 254.923 45.2018 252.48 46.9064C250.036 48.6109 247.21 49.8041 243.999 50.4859V51.3382C247.522 51.5087 250.775 52.4604 253.758 54.1933C256.769 55.9263 259.184 58.341 261.002 61.4376C262.82 64.5058 263.73 68.1422 263.73 72.3467C263.73 77.0342 262.536 81.2246 260.15 84.9177C257.764 88.5825 254.312 91.4802 249.795 93.6109C245.278 95.7132 239.795 96.7643 233.346 96.7643H194.184ZM215.278 79.7615H228.318C232.891 79.7615 236.258 78.895 238.417 77.1621C240.605 75.4291 241.698 73.0143 241.698 69.9177C241.698 67.6734 241.173 65.7416 240.122 64.1223C239.07 62.4746 237.579 61.2104 235.647 60.3297C233.715 59.4206 231.4 58.966 228.701 58.966H215.278V79.7615ZM215.278 45.3723H226.954C229.255 45.3723 231.301 44.9888 233.09 44.2217C234.88 43.4547 236.272 42.3467 237.266 40.8979C238.289 39.449 238.801 37.7018 238.801 35.6564C238.801 32.7302 237.764 30.4291 235.69 28.753C233.616 27.0768 230.818 26.2388 227.295 26.2388H215.278V45.3723Z" fill="white"/>
<path d="M273.872 96.7643V31.3098H294.71V96.7643H273.872ZM284.312 23.682C281.386 23.682 278.872 22.716 276.769 20.7842C274.667 18.824 273.616 16.466 273.616 13.7104C273.616 10.9831 274.667 8.65354 276.769 6.72172C278.872 4.76149 281.386 3.78138 284.312 3.78138C287.266 3.78138 289.781 4.76149 291.855 6.72172C293.957 8.65354 295.008 10.9831 295.008 13.7104C295.008 16.466 293.957 18.824 291.855 20.7842C289.781 22.716 287.266 23.682 284.312 23.682Z" fill="white"/>
<path d="M326.766 79.591L326.851 54.7473H329.749L348.158 31.3098H371.766L344.408 64.8893H338.911L326.766 79.591ZM307.973 96.7643V9.49161H328.811V96.7643H307.973ZM348.627 96.7643L331.496 69.5768L345.217 54.7899L372.703 96.7643H348.627Z" fill="white"/>
<path d="M407.124 98.0001C400.278 98.0001 394.369 96.6507 389.397 93.9518C384.454 91.2246 380.647 87.3467 377.977 82.3183C375.335 77.2615 374.014 71.253 374.014 64.2927C374.014 57.5314 375.349 51.6223 378.019 46.5655C380.69 41.4802 384.454 37.5314 389.312 34.7189C394.17 31.878 399.894 30.4575 406.485 30.4575C411.144 30.4575 415.406 31.1819 419.269 32.6308C423.133 34.0797 426.471 36.2246 429.283 39.0655C432.096 41.9064 434.283 45.4149 435.846 49.591C437.408 53.7388 438.19 58.4973 438.19 63.8666V69.0655H381.301V56.9632H418.801C418.772 54.7473 418.247 52.7729 417.224 51.0399C416.201 49.307 414.795 47.9575 413.005 46.9916C411.244 45.9973 409.212 45.5001 406.911 45.5001C404.582 45.5001 402.494 46.0257 400.647 47.0768C398.801 48.0996 397.337 49.5058 396.258 51.2956C395.178 53.0569 394.61 55.0598 394.553 57.3041V69.6195C394.553 72.2899 395.079 74.6337 396.13 76.6507C397.181 78.6393 398.673 80.1876 400.605 81.2956C402.536 82.4035 404.837 82.9575 407.508 82.9575C409.355 82.9575 411.031 82.7018 412.536 82.1905C414.042 81.6791 415.335 80.9263 416.414 79.932C417.494 78.9376 418.303 77.716 418.843 76.2672L437.977 76.8212C437.181 81.1109 435.434 84.8467 432.735 88.0285C430.065 91.182 426.556 93.6393 422.21 95.4007C417.863 97.1337 412.835 98.0001 407.124 98.0001Z" fill="white"/>
<path d="M528.051 41.1109H506.744C506.46 38.9234 505.878 36.949 504.997 35.1876C504.117 33.4263 502.952 31.9206 501.503 30.6706C500.054 29.4206 498.335 28.4689 496.347 27.8155C494.386 27.1337 492.213 26.7927 489.827 26.7927C485.594 26.7927 481.943 27.8297 478.875 29.9035C475.835 31.9774 473.492 34.9746 471.844 38.895C470.225 42.8155 469.415 47.5598 469.415 53.128C469.415 58.9234 470.239 63.7814 471.886 67.7018C473.563 71.5939 475.906 74.5342 478.918 76.5229C481.957 78.4831 485.551 79.4632 489.699 79.4632C492.029 79.4632 494.145 79.1649 496.048 78.5683C497.98 77.9717 499.671 77.1052 501.119 75.9689C502.597 74.8041 503.804 73.3979 504.742 71.7501C505.707 70.074 506.375 68.1848 506.744 66.0825L528.051 66.2104C527.682 70.074 526.56 73.8808 524.685 77.6308C522.838 81.3808 520.296 84.8041 517.057 87.9007C513.818 90.9689 509.869 93.4121 505.21 95.2302C500.58 97.0484 495.267 97.9575 489.273 97.9575C481.375 97.9575 474.301 96.2246 468.051 92.7587C461.83 89.2643 456.915 84.1791 453.307 77.503C449.699 70.8268 447.895 62.7018 447.895 53.128C447.895 43.5257 449.727 35.3865 453.392 28.7104C457.057 22.0342 462.014 16.9632 468.264 13.4973C474.514 10.0314 481.517 8.29842 489.273 8.29842C494.557 8.29842 499.443 9.03706 503.932 10.5143C508.421 11.9632 512.369 14.0939 515.779 16.9064C519.188 19.6905 521.958 23.1138 524.088 27.1763C526.219 31.2388 527.54 35.8837 528.051 41.1109Z" fill="white"/>
<path d="M560.96 59.4348V96.7643H540.122V9.49161H560.278V43.3268H561.002C562.48 39.2927 564.894 36.1393 568.247 33.8666C571.627 31.5939 575.761 30.4575 580.647 30.4575C585.249 30.4575 589.255 31.4802 592.664 33.5257C596.073 35.5427 598.715 38.3979 600.59 42.091C602.494 45.7842 603.431 50.1024 603.403 55.0456V96.7643H582.565V59.1365C582.593 55.5001 581.684 52.6592 579.837 50.6138C577.991 48.5683 575.391 47.5456 572.039 47.5456C569.852 47.5456 567.92 48.0285 566.244 48.9944C564.596 49.9319 563.303 51.2814 562.366 53.0427C561.457 54.8041 560.988 56.9348 560.96 59.4348Z" fill="white"/>
<path d="M647.007 98.0001C640.161 98.0001 634.251 96.6507 629.28 93.9518C624.337 91.2246 620.53 87.3467 617.859 82.3183C615.217 77.2615 613.896 71.253 613.896 64.2927C613.896 57.5314 615.232 51.6223 617.902 46.5655C620.573 41.4802 624.337 37.5314 629.195 34.7189C634.053 31.878 639.777 30.4575 646.368 30.4575C651.027 30.4575 655.288 31.1819 659.152 32.6308C663.016 34.0797 666.354 36.2246 669.166 39.0655C671.979 41.9064 674.166 45.4149 675.729 49.591C677.291 53.7388 678.073 58.4973 678.073 63.8666V69.0655H621.183V56.9632H658.683C658.655 54.7473 658.129 52.7729 657.107 51.0399C656.084 49.307 654.678 47.9575 652.888 46.9916C651.127 45.9973 649.095 45.5001 646.794 45.5001C644.465 45.5001 642.376 46.0257 640.53 47.0768C638.683 48.0996 637.22 49.5058 636.141 51.2956C635.061 53.0569 634.493 55.0598 634.436 57.3041V69.6195C634.436 72.2899 634.962 74.6337 636.013 76.6507C637.064 78.6393 638.555 80.1876 640.487 81.2956C642.419 82.4035 644.72 82.9575 647.391 82.9575C649.237 82.9575 650.913 82.7018 652.419 82.1905C653.925 81.6791 655.217 80.9263 656.297 79.932C657.377 78.9376 658.186 77.716 658.726 76.2672L677.859 76.8212C677.064 81.1109 675.317 84.8467 672.618 88.0285C669.948 91.182 666.439 93.6393 662.092 95.4007C657.746 97.1337 652.717 98.0001 647.007 98.0001Z" fill="white"/>
<path d="M719.269 98.0001C712.366 98.0001 706.443 96.5797 701.499 93.7388C696.585 90.8979 692.806 86.949 690.164 81.8922C687.522 76.8069 686.201 70.9263 686.201 64.2501C686.201 57.5456 687.522 51.6649 690.164 46.6081C692.835 41.5229 696.627 37.5598 701.542 34.7189C706.485 31.878 712.38 30.4575 719.227 30.4575C725.278 30.4575 730.548 31.5513 735.036 33.7388C739.553 35.9263 743.076 39.0229 745.604 43.0285C748.161 47.0058 749.511 51.6791 749.653 57.0484H730.178C729.781 53.6962 728.644 51.0683 726.769 49.1649C724.923 47.2615 722.508 46.3098 719.525 46.3098C717.11 46.3098 714.994 46.9916 713.176 48.3552C711.357 49.6905 709.937 51.6791 708.914 54.3212C707.92 56.9348 707.423 60.1734 707.423 64.0371C707.423 67.9007 707.92 71.1677 708.914 73.8382C709.937 76.4802 711.357 78.4831 713.176 79.8467C714.994 81.182 717.11 81.8496 719.525 81.8496C721.457 81.8496 723.161 81.4376 724.639 80.6138C726.144 79.7899 727.38 78.5825 728.346 76.9916C729.312 75.3723 729.923 73.4121 730.178 71.1109H749.653C749.454 76.5087 748.104 81.2246 745.604 85.2587C743.133 89.2927 739.653 92.432 735.164 94.6763C730.704 96.8922 725.406 98.0001 719.269 98.0001Z" fill="white"/>
<path d="M779.109 79.591L779.195 54.7473H782.092L800.502 31.3098H824.109L796.752 64.8893H791.254L779.109 79.591ZM760.317 96.7643V9.49161H781.155V96.7643H760.317ZM800.97 96.7643L783.84 69.5768L797.561 54.7899L825.047 96.7643H800.97Z" fill="white"/>
</svg>
