<svg width="805" height="98" viewBox="0 0 805 98" fill="none" xmlns="http://www.w3.org/2000/svg">
<path fill-rule="evenodd" clip-rule="evenodd" d="M131.098 0.967405L130.613 3.05619L126.165 7.35932L126.199 7.39695L124.757 8.72181L122.473 10.9307C119.165 12.414 116.818 15.8355 116.748 19.8589C116.653 25.315 120.781 29.8113 125.968 29.9018C129.189 29.958 132.06 28.3023 133.797 25.7332L136.825 23.3289L139.282 21.1101L144.418 16.3402L145.983 16.3131L146.55 18.9039L146.724 28.783L144.243 36.1079L140.691 41.8907L138.775 44.2652L133.852 43.5646L133.836 43.5625L124.921 43.4069L124.895 43.412L121.228 44.1281L121.211 44.1315L121.195 44.1372L117.52 45.3731L117.498 45.3805L117.478 45.3916L112.834 47.9292L111.058 48.6458L102.8 53.9899L93.5269 60.9122L85.2876 67.2964L72.9105 75.833L65.6876 80.6391L54.3174 87.0778L47.0762 90.8442L36.7041 94.6647L34.1042 95.23L32.8222 95.252C30.9317 95.637 28.9657 95.8242 26.9495 95.789C25.5863 95.7652 24.2495 95.6402 22.9467 95.4229L22.6245 95.4287L21.9149 95.2297C20.8878 95.0167 19.8838 94.746 18.9068 94.4204C7.86102 91.5505 -0.203387 81.4486 0.00390667 69.5728C0.247018 55.6452 11.7746 44.5526 25.7516 44.7966C28.111 44.8378 30.3891 45.2 32.5454 45.8397C38.0024 47.9982 44.2848 49.2809 50.9864 49.3979C59.2315 49.5418 66.9036 47.8998 73.2286 44.9858L72.3988 46.715L66.2375 52.543L56.4512 59.9944L51.884 62.9047C51.8497 62.9252 51.8161 62.9466 51.7833 62.9688L51.7736 62.9753C50.9677 63.5281 50.6351 64.5631 51.0324 65.4525C51.3673 66.2018 52.126 66.6362 52.9258 66.619L52.7893 66.6469C52.8152 66.7822 52.84 66.9177 52.8636 67.0537L53.8342 66.4349L53.6727 66.4676C53.7005 66.4566 53.7283 66.4454 53.7559 66.4331C53.8505 66.3912 53.9403 66.3428 54.0255 66.2897L54.0788 66.2792L59.115 63.069L68.3889 56.1467L73.7156 51.1487L73.7065 51.1393L75.5387 49.3762L75.5753 49.2605L79.6857 45.5484L85.2977 38.1697L89.3441 30.8177L91.7701 20.3734L94.7914 14.0795L99.387 8.27861L104.541 4.54841L110.748 1.32016L114.904 0.207817L126.906 0L131.098 0.967405ZM26.2983 58.3291C19.9582 58.2184 14.729 63.2503 14.6188 69.5679C14.5086 75.8855 19.5589 81.0965 25.899 81.2072C32.239 81.3179 37.4682 76.2863 37.5785 69.9687C37.6888 63.6511 32.6384 58.4397 26.2983 58.3291Z" fill="white" fill-opacity="0.96"/>
<path fill-rule="evenodd" clip-rule="evenodd" d="M130.113 46.6182C144.09 46.8622 155.227 58.1175 154.989 71.7578C154.751 85.3982 143.227 96.2583 129.25 96.0143C127.431 95.9825 125.66 95.7637 123.956 95.3779L123.42 95.3686L115.108 93.0951L104.215 89.1804L93.8251 86.3389L85.4947 85.1293L68.2751 84.8288L68.2754 84.8077L66.028 84.7684L66.0325 84.5086L66.1199 84.4431C66.1299 84.4327 66.1414 84.4236 66.1545 84.417L67.618 83.3232C67.6309 83.304 67.647 83.2824 67.6636 83.2651C67.6879 83.2398 67.715 83.2126 67.7653 83.1673C67.7956 83.1399 67.8245 83.1258 67.8449 83.1169C67.8565 83.1118 67.8566 83.1116 67.8606 83.1097C67.8606 83.1097 67.863 83.1082 67.8644 83.1068C67.8678 83.1036 67.8719 83.0994 67.8777 83.0934C67.8875 83.0831 67.9064 83.0627 67.929 83.0454C67.9571 83.0239 67.9725 83.0064 68.0087 82.9742C68.0271 82.9579 68.0445 82.9456 68.0562 82.9373C68.0682 82.9287 68.0759 82.923 68.084 82.9159C68.1234 82.8813 68.1501 82.8627 68.1778 82.8446C68.1862 82.8391 68.1946 82.8338 68.2007 82.8302C68.2074 82.8262 68.2119 82.8235 68.2161 82.8208C68.2228 82.8166 68.2252 82.8143 68.2252 82.8143C68.2326 82.8065 68.2399 82.7997 68.2456 82.7943L68.2614 82.779C68.2664 82.7703 68.2717 82.7614 68.2756 82.7545C68.2777 82.7507 68.28 82.7469 68.2814 82.7446L68.2833 82.7409L68.286 82.7369C68.286 82.7369 68.2881 82.7334 68.2902 82.7306C68.2902 82.7306 68.2939 82.7258 68.2973 82.7219C68.2991 82.7198 68.3026 82.7159 68.3072 82.7117C68.3072 82.7117 68.31 82.7101 68.3121 82.7084L68.3122 82.701L70.5739 81.1135L70.7923 80.9507L70.797 80.9571L75.7106 77.5093L86.2766 70.2448L96.321 62.9708L105.303 56.7429L112.692 52.0831L113.284 51.8531L116.7 50.0961C117.474 49.6449 118.274 49.2335 119.098 48.8635L119.421 48.6973C119.459 48.6776 119.5 48.6693 119.541 48.6694C122.773 47.2908 126.354 46.5526 130.113 46.6182ZM129.094 60.1234C122.754 60.0128 117.525 65.0446 117.415 71.3623C117.305 77.6798 122.355 82.8908 128.695 83.0015C135.035 83.1122 140.264 78.0806 140.374 71.763C140.484 65.4454 135.434 60.234 129.094 60.1234Z" fill="white" fill-opacity="0.96"/>
<path d="M193.16 95.8068V8.53406H229.552C236.086 8.53406 241.555 9.45735 245.958 11.3039C250.39 13.1505 253.714 15.7358 255.93 19.0596C258.174 22.3835 259.296 26.2329 259.296 30.6079C259.296 33.9318 258.6 36.9005 257.208 39.5142C255.816 42.0994 253.898 44.2443 251.455 45.9488C249.012 47.6534 246.185 48.8466 242.975 49.5284V50.3806C246.498 50.5511 249.751 51.5028 252.734 53.2358C255.745 54.9687 258.16 57.3835 259.978 60.4801C261.796 63.5483 262.705 67.1846 262.705 71.3892C262.705 76.0767 261.512 80.267 259.126 83.9602C256.739 87.625 253.288 90.5227 248.771 92.6534C244.253 94.7556 238.771 95.8068 232.322 95.8068H193.16ZM214.253 78.8039H227.293C231.867 78.8039 235.234 77.9375 237.393 76.2045C239.58 74.4716 240.674 72.0568 240.674 68.9602C240.674 66.7159 240.148 64.7841 239.097 63.1647C238.046 61.517 236.555 60.2528 234.623 59.3721C232.691 58.463 230.376 58.0085 227.677 58.0085H214.253V78.8039ZM214.253 44.4147H225.93C228.231 44.4147 230.276 44.0312 232.066 43.2642C233.856 42.4971 235.248 41.3892 236.242 39.9403C237.265 38.4914 237.776 36.7443 237.776 34.6988C237.776 31.7727 236.739 29.4716 234.665 27.7954C232.592 26.1193 229.793 25.2812 226.271 25.2812H214.253V44.4147Z" fill="white"/>
<path d="M270.447 95.8068V30.3522H291.285V95.8068H270.447ZM280.888 22.7244C277.961 22.7244 275.447 21.7585 273.345 19.8267C271.243 17.8664 270.192 15.5085 270.192 12.7528C270.192 10.0255 271.243 7.69599 273.345 5.76417C275.447 3.80394 277.961 2.82383 280.888 2.82383C283.842 2.82383 286.356 3.80394 288.43 5.76417C290.532 7.69599 291.584 10.0255 291.584 12.7528C291.584 15.5085 290.532 17.8664 288.43 19.8267C286.356 21.7585 283.842 22.7244 280.888 22.7244Z" fill="white"/>
<path d="M320.941 78.6335L321.027 53.7897H323.924L342.333 30.3522H365.941L338.583 63.9318H333.086L320.941 78.6335ZM302.149 95.8068V8.53406H322.987V95.8068H302.149ZM342.802 95.8068L325.672 68.6193L339.393 53.8324L366.879 95.8068H342.802Z" fill="white"/>
<path d="M398.9 97.0426C392.053 97.0426 386.144 95.6931 381.173 92.9943C376.23 90.267 372.423 86.3892 369.752 81.3608C367.11 76.3039 365.789 70.2954 365.789 63.3352C365.789 56.5738 367.124 50.6647 369.795 45.6079C372.465 40.5227 376.23 36.5738 381.088 33.7613C385.946 30.9204 391.67 29.5 398.261 29.5C402.92 29.5 407.181 30.2244 411.045 31.6733C414.909 33.1221 418.247 35.267 421.059 38.1079C423.872 40.9488 426.059 44.4574 427.622 48.6335C429.184 52.7812 429.965 57.5397 429.965 62.9091V68.1079H373.076V56.0056H410.576C410.548 53.7897 410.022 51.8153 409 50.0824C407.977 48.3494 406.571 47 404.781 46.0341C403.019 45.0397 400.988 44.5426 398.687 44.5426C396.357 44.5426 394.269 45.0681 392.423 46.1193C390.576 47.142 389.113 48.5483 388.034 50.338C386.954 52.0994 386.386 54.1022 386.329 56.3466V68.6619C386.329 71.3324 386.855 73.6761 387.906 75.6931C388.957 77.6818 390.448 79.2301 392.38 80.338C394.312 81.446 396.613 82 399.284 82C401.13 82 402.806 81.7443 404.312 81.2329C405.818 80.7216 407.11 79.9687 408.19 78.9744C409.269 77.9801 410.079 76.7585 410.619 75.3096L429.752 75.8636C428.957 80.1534 427.21 83.8892 424.511 87.071C421.84 90.2244 418.332 92.6818 413.985 94.4432C409.639 96.1761 404.61 97.0426 398.9 97.0426Z" fill="white"/>
<path d="M517.427 40.1534H496.12C495.836 37.9659 495.254 35.9914 494.373 34.2301C493.492 32.4687 492.327 30.963 490.879 29.713C489.43 28.463 487.711 27.5113 485.722 26.8579C483.762 26.1761 481.589 25.8352 479.202 25.8352C474.97 25.8352 471.319 26.8721 468.251 28.946C465.211 31.0199 462.867 34.017 461.22 37.9375C459.6 41.8579 458.791 46.6022 458.791 52.1704C458.791 57.9659 459.614 62.8238 461.262 66.7443C462.938 70.6363 465.282 73.5767 468.293 75.5653C471.333 77.5255 474.927 78.5056 479.075 78.5056C481.404 78.5056 483.521 78.2074 485.424 77.6108C487.356 77.0142 489.046 76.1477 490.495 75.0113C491.972 73.8466 493.18 72.4403 494.117 70.7926C495.083 69.1164 495.751 67.2272 496.12 65.125L517.427 65.2528C517.058 69.1164 515.935 72.9233 514.06 76.6733C512.214 80.4233 509.671 83.8466 506.433 86.9431C503.194 90.0113 499.245 92.4545 494.586 94.2727C489.955 96.0909 484.643 97 478.648 97C470.751 97 463.677 95.267 457.427 91.8011C451.205 88.3068 446.291 83.2216 442.683 76.5454C439.075 69.8693 437.271 61.7443 437.271 52.1704C437.271 42.5681 439.103 34.4289 442.768 27.7528C446.433 21.0767 451.39 16.0056 457.64 12.5397C463.89 9.07383 470.893 7.34087 478.648 7.34087C483.933 7.34087 488.819 8.07951 493.308 9.55679C497.796 11.0056 501.745 13.1363 505.154 15.9488C508.563 18.7329 511.333 22.1562 513.464 26.2187C515.595 30.2812 516.916 34.9261 517.427 40.1534Z" fill="white"/>
<path d="M547.935 58.4772V95.8068H527.097V8.53406H547.253V42.3693H547.978C549.455 38.3352 551.87 35.1818 555.222 32.9091C558.603 30.6363 562.736 29.5 567.623 29.5C572.225 29.5 576.231 30.5227 579.64 32.5681C583.049 34.5852 585.691 37.4403 587.566 41.1335C589.469 44.8267 590.407 49.1449 590.378 54.088V95.8068H569.54V58.1789C569.569 54.5426 568.66 51.7017 566.813 49.6562C564.967 47.6108 562.367 46.588 559.015 46.588C556.827 46.588 554.896 47.071 553.219 48.0369C551.572 48.9744 550.279 50.3238 549.342 52.0852C548.432 53.8466 547.964 55.9772 547.935 58.4772Z" fill="white"/>
<path d="M631.583 97.0426C624.736 97.0426 618.827 95.6931 613.856 92.9943C608.912 90.267 605.106 86.3892 602.435 81.3608C599.793 76.3039 598.472 70.2954 598.472 63.3352C598.472 56.5738 599.807 50.6647 602.478 45.6079C605.148 40.5227 608.912 36.5738 613.77 33.7613C618.628 30.9204 624.353 29.5 630.944 29.5C635.603 29.5 639.864 30.2244 643.728 31.6733C647.591 33.1221 650.93 35.267 653.742 38.1079C656.555 40.9488 658.742 44.4574 660.305 48.6335C661.867 52.7812 662.648 57.5397 662.648 62.9091V68.1079H605.759V56.0056H643.259C643.231 53.7897 642.705 51.8153 641.682 50.0824C640.66 48.3494 639.253 47 637.464 46.0341C635.702 45.0397 633.671 44.5426 631.37 44.5426C629.04 44.5426 626.952 45.0681 625.106 46.1193C623.259 47.142 621.796 48.5483 620.716 50.338C619.637 52.0994 619.069 54.1022 619.012 56.3466V68.6619C619.012 71.3324 619.537 73.6761 620.589 75.6931C621.64 77.6818 623.131 79.2301 625.063 80.338C626.995 81.446 629.296 82 631.966 82C633.813 82 635.489 81.7443 636.995 81.2329C638.5 80.7216 639.793 79.9687 640.873 78.9744C641.952 77.9801 642.762 76.7585 643.302 75.3096L662.435 75.8636C661.64 80.1534 659.893 83.8892 657.194 87.071C654.523 90.2244 651.015 92.6818 646.668 94.4432C642.322 96.1761 637.293 97.0426 631.583 97.0426Z" fill="white"/>
<path d="M701.445 97.0426C694.542 97.0426 688.618 95.6221 683.675 92.7812C678.76 89.9403 674.982 85.9914 672.34 80.9346C669.698 75.8494 668.377 69.9687 668.377 63.2926C668.377 56.588 669.698 50.7074 672.34 45.6505C675.01 40.5653 678.803 36.6022 683.718 33.7613C688.661 30.9204 694.556 29.5 701.402 29.5C707.453 29.5 712.723 30.5937 717.212 32.7812C721.729 34.9687 725.252 38.0653 727.78 42.071C730.337 46.0483 731.686 50.7216 731.828 56.0909H712.354C711.956 52.7386 710.82 50.1108 708.945 48.2074C707.098 46.3039 704.684 45.3522 701.701 45.3522C699.286 45.3522 697.169 46.0341 695.351 47.3977C693.533 48.7329 692.113 50.7216 691.09 53.3636C690.096 55.9772 689.598 59.2159 689.598 63.0795C689.598 66.9431 690.096 70.2102 691.09 72.8806C692.113 75.5227 693.533 77.5255 695.351 78.8892C697.169 80.2244 699.286 80.892 701.701 80.892C703.633 80.892 705.337 80.4801 706.814 79.6562C708.32 78.8324 709.556 77.625 710.522 76.0341C711.488 74.4147 712.098 72.4545 712.354 70.1534H731.828C731.63 75.5511 730.28 80.267 727.78 84.3011C725.309 88.3352 721.828 91.4744 717.34 93.7187C712.88 95.9346 707.581 97.0426 701.445 97.0426Z" fill="white"/>
<path d="M758.885 78.6335L758.97 53.7897H761.868L780.277 30.3522H803.885L776.527 63.9318H771.03L758.885 78.6335ZM740.093 95.8068V8.53406H760.931V95.8068H740.093ZM780.746 95.8068L763.615 68.6193L777.337 53.8324L804.823 95.8068H780.746Z" fill="white"/>
</svg>
