<svg width="150" height="93" viewBox="0 0 150 93" fill="none" xmlns="http://www.w3.org/2000/svg">
<path fill-rule="evenodd" clip-rule="evenodd" d="M126.869 0.936199L126.4 2.95761L122.095 7.12192L122.128 7.15834L120.732 8.44046L118.522 10.5781C115.321 12.0135 113.05 15.3246 112.982 19.2183C112.89 24.4984 116.885 28.8496 121.905 28.9372C125.021 28.9916 127.8 27.3893 129.481 24.9031L132.411 22.5764L134.789 20.4292L139.759 15.8131L141.274 15.7869L141.823 18.2941L141.991 27.8545L139.59 34.9431L136.153 40.5394L134.298 42.8373L129.534 42.1593L129.519 42.1572L120.892 42.0067L120.866 42.0116L117.318 42.7047L117.301 42.7079L117.285 42.7134L113.729 43.9094L113.708 43.9166L113.688 43.9274L109.194 46.3831L107.475 47.0765L99.4843 52.2483L90.5099 58.9473L82.5364 65.1256L70.5586 73.3868L63.5686 78.0378L52.5652 84.2689L45.5576 87.9137L35.5201 91.6111L33.0041 92.158L31.7634 92.1794C29.9339 92.552 28.0313 92.7331 26.0801 92.699C24.7609 92.676 23.4672 92.5551 22.2065 92.3447L21.8946 92.3504L21.2079 92.1578C20.214 91.9517 19.2424 91.6896 18.2969 91.3746C7.60743 88.5973 -0.196829 78.8213 0.00377807 67.3285C0.239047 53.8502 11.3947 43.1154 24.9209 43.3515C27.2042 43.3914 29.4088 43.7419 31.4955 44.361C36.7765 46.4499 42.8562 47.6912 49.3417 47.8044C57.3208 47.9437 64.7455 46.3547 70.8664 43.5347L70.0633 45.208L64.1008 50.8481L54.6302 58.0591L50.2103 60.8755C50.1771 60.8954 50.1446 60.9161 50.1129 60.9376L50.1034 60.9438C49.3236 61.4788 49.0017 62.4805 49.3862 63.3411C49.7103 64.0663 50.4445 64.4866 51.2185 64.47L51.0864 64.497C51.1115 64.6279 51.1355 64.7591 51.1583 64.8907L52.0976 64.2918L51.9414 64.3235C51.9682 64.3129 51.9951 64.302 52.0218 64.2901C52.1134 64.2495 52.2003 64.2027 52.2828 64.1514L52.3344 64.1411L57.208 61.0345L66.1828 54.3355L71.3377 49.4988L71.3288 49.4897L73.102 47.7834L73.1374 47.6715L77.1151 44.0791L82.5461 36.9384L86.462 29.8236L88.8098 19.7162L91.7336 13.6254L96.181 8.01156L101.169 4.40168L107.176 1.27758L111.198 0.201113L122.812 3.17639e-08L126.869 0.936199ZM25.45 56.4475C19.3144 56.3404 14.2539 61.21 14.1472 67.3238C14.0405 73.4376 18.928 78.4805 25.0635 78.5876C31.199 78.6947 36.2595 73.8255 36.3663 67.7117C36.473 61.5978 31.5855 56.5546 25.45 56.4475Z" fill="white"/>
<path fill-rule="evenodd" clip-rule="evenodd" d="M125.915 45.1144C139.442 45.3505 150.22 56.2427 149.99 69.443C149.759 82.6434 138.607 93.1532 125.081 92.9171C123.321 92.8863 121.607 92.6746 119.958 92.3012L119.438 92.2922L111.394 90.0921L100.853 86.3036L90.7985 83.5538L82.7368 82.3832L66.0726 82.0924L66.073 82.0719L63.898 82.034L63.9024 81.7825L63.987 81.7191C63.9967 81.7091 64.0078 81.7003 64.0205 81.6939L65.4368 80.6354C65.4493 80.6167 65.4648 80.5959 65.4809 80.5792C65.5045 80.5546 65.5307 80.5284 65.5793 80.4845C65.6087 80.458 65.6366 80.4443 65.6564 80.4357C65.6676 80.4308 65.6676 80.4306 65.6716 80.4288C65.6716 80.4288 65.6738 80.4273 65.6752 80.426C65.6785 80.4229 65.6825 80.4188 65.6881 80.4129C65.6975 80.403 65.7159 80.3832 65.7378 80.3665C65.7649 80.3458 65.7799 80.3288 65.8149 80.2976C65.8327 80.2818 65.8495 80.2699 65.8608 80.2619C65.8724 80.2535 65.8799 80.2481 65.8878 80.2412C65.9259 80.2077 65.9517 80.1897 65.9785 80.1722C65.9866 80.1669 65.9947 80.1618 66.0007 80.1582C66.0072 80.1544 66.0116 80.1517 66.0156 80.1492C66.022 80.1451 66.0243 80.1429 66.0243 80.1429C66.0315 80.1353 66.0386 80.1287 66.0441 80.1235L66.0594 80.1087C66.0642 80.1003 66.0694 80.0916 66.0732 80.085C66.0752 80.0814 66.0775 80.0776 66.0787 80.0754L66.0806 80.0718C66.0806 80.0718 66.0821 80.0696 66.0832 80.068C66.0838 80.0671 66.0853 80.0646 66.0872 80.0619C66.0883 80.0605 66.0909 80.0572 66.0942 80.0535C66.0959 80.0515 66.0993 80.0476 66.1037 80.0436C66.1046 80.0428 66.1064 80.0421 66.1085 80.0404L66.1086 80.0333L68.2974 78.497L68.5087 78.3394L68.5133 78.3456L73.2683 75.009L83.4935 67.9788L93.2139 60.9395L101.906 54.9125L109.056 50.403L109.63 50.1804L112.936 48.4801C113.684 48.0435 114.459 47.6453 115.256 47.2872L115.569 47.1264C115.606 47.1074 115.645 47.0994 115.685 47.0994C118.812 45.7653 122.278 45.0509 125.915 45.1144ZM124.93 58.1839C118.794 58.0769 113.734 62.9464 113.627 69.0603C113.521 75.174 118.408 80.2169 124.543 80.324C130.679 80.4311 135.739 75.5619 135.846 69.4481C135.953 63.3342 131.065 58.291 124.93 58.1839Z" fill="white"/>
</svg>
