<svg width="757" height="150" viewBox="0 0 757 150" fill="none" xmlns="http://www.w3.org/2000/svg">
<path d="M731.266 46.8096L733.364 48.9004L735.463 44.7178L755.402 43.6719L756.452 44.7178V122.107L752.254 132.565L745.957 140.932L738.611 145.115L729.167 148.253L705.03 149.298L687.19 145.115L686.142 141.978L687.19 127.336L694.536 128.382L702.932 130.474H720.771L729.167 126.291L732.315 122.107L733.364 111.649L724.97 115.832L716.574 117.924H707.129L694.536 113.741L685.092 105.374L680.894 98.0537L678.795 88.6416V72.9551L682.993 59.3594L692.437 48.9004L700.833 43.6719L705.03 42.626H722.87L731.266 46.8096ZM490.951 44.7178L497.248 48.9004L504.595 57.2676L507.742 65.6338L508.791 69.8174V85.5039H456.321L459.47 94.917L464.717 99.0996L468.914 101.191H488.853L503.545 95.9619L504.595 97.0078V112.695L495.149 116.878L482.557 118.97H471.013L456.321 115.832L445.827 109.558L439.53 102.236L434.283 89.6875V74L437.432 62.4961L443.728 53.084L450.025 47.8555L458.42 43.6719L467.864 41.5811H478.358L490.951 44.7178ZM160.332 57.3652C177.555 57.666 191.28 71.517 190.987 88.3018C190.694 105.087 176.494 118.45 159.27 118.149C157.029 118.11 154.847 117.841 152.747 117.366L152.086 117.354L141.843 114.557L128.42 109.739L115.617 106.242L105.351 104.754L84.1327 104.383L84.1337 104.357L81.3642 104.309L81.3691 103.989L81.4775 103.908C81.4897 103.896 81.5035 103.884 81.5194 103.876L83.3232 102.53C83.3391 102.507 83.3594 102.48 83.3798 102.459C83.4097 102.428 83.4431 102.394 83.5048 102.339C83.5421 102.305 83.5773 102.287 83.6025 102.276C83.6166 102.27 83.6171 102.27 83.622 102.268C83.622 102.268 83.6251 102.266 83.6269 102.265C83.631 102.261 83.6364 102.256 83.6435 102.248C83.6555 102.235 83.6791 102.21 83.7069 102.188C83.7413 102.162 83.7602 102.14 83.8046 102.101C83.8272 102.081 83.8489 102.066 83.8632 102.056C83.878 102.045 83.8874 102.038 83.8974 102.029C83.9458 101.987 83.9786 101.964 84.0126 101.941C84.0229 101.935 84.0334 101.928 84.0409 101.924C84.0492 101.919 84.0553 101.915 84.0605 101.912C84.0677 101.907 84.0707 101.905 84.0712 101.904C84.0803 101.895 84.0896 101.887 84.0966 101.88L84.1161 101.861C84.1222 101.851 84.1289 101.84 84.1337 101.831C84.1363 101.826 84.1389 101.821 84.1405 101.818L84.1435 101.814C84.1435 101.814 84.1451 101.811 84.1464 101.809C84.1472 101.807 84.1491 101.805 84.1513 101.802C84.1526 101.8 84.156 101.796 84.1601 101.791C84.1623 101.789 84.1671 101.783 84.1728 101.778C84.1738 101.777 84.1761 101.776 84.1786 101.774V101.765L86.9657 99.8115L87.2343 99.6113L87.2402 99.6191L93.2948 95.377L106.315 86.4375L118.692 77.4873L129.76 69.8242L138.865 64.0898L139.595 63.8066L143.805 61.6455C144.758 61.0903 145.744 60.5832 146.759 60.1279L147.157 59.9238C147.204 59.8997 147.255 59.8895 147.305 59.8896C151.287 58.1934 155.7 57.2844 160.332 57.3652ZM653.609 46.8096L662.005 53.084L668.302 62.4961L671.449 74V86.5498L669.351 95.9619L663.054 105.374L657.808 110.604L649.412 115.832L642.066 117.924H622.127L611.634 114.786L602.189 108.512L595.892 100.146L592.744 92.8242L591.694 87.5957V70.8623L595.892 61.4502L602.189 52.0381L613.732 44.7178L622.127 42.626H642.066L653.609 46.8096ZM161.545 1.19141L160.947 3.76172L155.466 9.05664L155.508 9.10254L153.73 10.7324L150.917 13.4512C146.841 15.2764 143.949 19.4866 143.862 24.4375C143.745 31.1511 148.832 36.6842 155.224 36.7959C159.192 36.8651 162.731 34.8273 164.872 31.666L168.601 28.708L171.63 25.9775L177.958 20.1084L179.888 20.0752L180.586 23.2627L180.801 35.4199L177.744 44.4326L173.367 51.5488L171.006 54.4707L164.939 53.6084L164.92 53.6055L153.934 53.4141L153.901 53.4199L149.384 54.3018L149.362 54.3057L149.343 54.3125L144.813 55.833L144.787 55.8428L144.762 55.8564L139.04 58.9785L136.851 59.8604L126.676 66.4355L115.249 74.9541L105.097 82.8096L89.8446 93.3135L80.9443 99.2275L66.9335 107.15L58.0107 111.785L45.2294 116.485L42.0263 117.181L40.4462 117.208C38.1167 117.682 35.6942 117.912 33.2099 117.869C31.5301 117.84 29.8825 117.685 28.2773 117.418L27.8798 117.426L27.0058 117.181C25.7402 116.919 24.5027 116.585 23.2987 116.185C9.6875 112.653 -0.250156 100.222 0.00479889 85.6084C0.303952 68.4703 14.5083 54.8207 31.7314 55.1211C34.6388 55.1718 37.4463 55.618 40.1034 56.4053C46.8279 59.0615 54.5698 60.64 62.828 60.7842C72.988 60.9615 82.4424 58.941 90.2362 55.3555L89.2128 57.4834L81.621 64.6543L69.5624 73.8232L63.9345 77.4043C63.8922 77.4296 63.8508 77.4561 63.8105 77.4834L63.7978 77.4912C62.8051 78.1714 62.3954 79.4449 62.8847 80.5391C63.2972 81.461 64.2323 81.9956 65.2177 81.9746L65.0497 82.0098C65.0816 82.176 65.1125 82.3426 65.1415 82.5098L66.3378 81.748L66.1386 81.7891C66.1728 81.7755 66.2072 81.7611 66.2411 81.7461C66.3576 81.6945 66.4683 81.6355 66.5732 81.5703L66.6386 81.5566L72.8446 77.6064L84.2724 69.0889L90.8359 62.9395L90.8251 62.9277L93.0829 60.7578L93.1278 60.6152L98.1923 56.0479L105.107 46.9678L110.094 37.9219L113.083 25.0693L116.806 17.3252L122.469 10.1865L128.819 5.59668L136.468 1.62402L141.59 0.255859L156.379 0L161.545 1.19141ZM295.763 16.4814L304.157 23.8018L307.306 31.1221V46.8096L302.059 55.1758L295.763 59.3594V61.4502L304.157 65.6338L309.405 71.9082L312.553 80.2744V91.7793L309.405 101.191L303.108 108.512L293.664 113.741L281.071 116.878H226.502L225.452 115.832V12.2979H282.12L295.763 16.4814ZM346.134 44.7178V115.832L345.084 116.878H324.096V44.7178L325.145 43.6719H341.935L346.134 44.7178ZM382.862 14.3896V70.8623L389.159 68.7715L402.802 53.084L410.147 44.7178L414.345 43.6719H433.234V46.8096L423.789 57.2676L414.345 68.7715L408.048 76.0918L409.098 80.2744L420.642 93.8701L430.086 105.374L437.432 113.741L436.382 116.878H413.296L404.9 107.466L388.11 86.5498L382.862 85.5039V115.832L381.813 116.878H361.874L360.825 115.832V14.3896L361.874 13.3438H381.813L382.862 14.3896ZM545.521 97.0078H590.645L591.694 98.0537V116.878H522.434L521.385 115.832V18.5723L522.434 14.3896H545.521V97.0078ZM159.077 73.9844C151.265 73.8481 144.821 80.0396 144.685 87.8135C144.55 95.5873 150.773 102 158.585 102.137C166.397 102.273 172.842 96.0816 172.977 88.3076C173.113 80.5337 166.89 74.1209 159.077 73.9844ZM621.078 62.4961L616.881 67.7256L614.782 72.9551V88.6416L620.029 97.0078L626.325 101.191H636.819L643.116 97.0078L646.264 92.8242L648.362 85.5039V72.9551L643.116 62.4961L635.769 59.3594H628.424L621.078 62.4961ZM707.129 63.543L702.932 69.8174L701.882 72.9551V88.6416L707.129 97.0078L714.476 100.146H724.97L732.315 95.9619L734.414 92.8242V63.543L721.821 59.3594H715.525L707.129 63.543ZM32.4062 71.7734C24.5936 71.6371 18.1503 77.8285 18.0146 85.6025C17.879 93.3765 24.1024 99.7894 31.915 99.9258C39.7273 100.062 46.1707 93.8704 46.3066 86.0967C46.4423 78.3227 40.2187 71.9099 32.4062 71.7734ZM248.539 99.0996H275.823L284.219 95.9619L288.416 90.7334L289.466 81.3213L286.317 75.0459L280.021 71.9082L275.823 70.8623H248.539V99.0996ZM463.667 58.3125L458.42 63.543L455.271 70.8623V71.9082H487.804V65.6338L483.605 59.3594L474.161 56.2217H471.013L463.667 58.3125ZM248.539 54.1299H273.725L281.071 50.9932L284.219 47.8555L285.268 38.4434L282.12 32.168L271.626 29.0312H248.539V54.1299ZM347.184 16.4814V27.9854L345.084 32.168L341.935 33.2139H327.244L323.047 30.0762V16.4814L327.244 12.2979H342.985L347.184 16.4814Z" fill="white"/>
</svg>
