<svg width="807" height="117" viewBox="0 0 807 117" fill="none" xmlns="http://www.w3.org/2000/svg">
<path fill-rule="evenodd" clip-rule="evenodd" d="M126.869 1.45067L126.4 3.47208L122.095 7.63639L122.128 7.67281L120.732 8.95493L118.522 11.0925C115.321 12.528 113.05 15.8391 112.982 19.7327C112.89 25.0128 116.885 29.3641 121.905 29.4517C125.021 29.5061 127.8 27.9038 129.481 25.4176L132.411 23.0908L134.789 20.9436L139.759 16.3276L141.274 16.3014L141.823 18.8085L141.991 28.369L139.59 35.4576L136.153 41.0539L134.298 43.3518L129.534 42.6738L129.519 42.6717L120.892 42.5211L120.866 42.526L117.318 43.2191L117.301 43.2224L117.285 43.2279L113.729 44.4239L113.708 44.4311L113.688 44.4418L109.194 46.8975L107.475 47.591L99.4843 52.7628L90.5099 59.4618L82.5364 65.64L70.5586 73.9013L63.5686 78.5523L52.5652 84.7834L45.5576 88.4282L35.5201 92.1255L33.0041 92.6725L31.7634 92.6939C29.9339 93.0664 28.0313 93.2475 26.0801 93.2135C24.7609 93.1905 23.4672 93.0696 22.2065 92.8592L21.8946 92.8649L21.2079 92.6723C20.214 92.4662 19.2424 92.2041 18.2969 91.889C7.60743 89.1117 -0.196827 79.3358 0.00378065 67.843C0.239049 54.3647 11.3947 43.6299 24.9209 43.866C27.2042 43.9058 29.4088 44.2564 31.4956 44.8755C36.7765 46.9643 42.8562 48.2056 49.3417 48.3189C57.3208 48.4581 64.7455 46.8691 70.8664 44.0491L70.0633 45.7225L64.1008 51.3625L54.6302 58.5735L50.2103 61.3899C50.1771 61.4099 50.1446 61.4305 50.1129 61.452L50.1034 61.4583C49.3236 61.9933 49.0017 62.9949 49.3862 63.8556C49.7103 64.5807 50.4445 65.0011 51.2185 64.9844L51.0864 65.0115C51.1115 65.1424 51.1355 65.2736 51.1583 65.4052L52.0976 64.8063L51.9414 64.838C51.9682 64.8273 51.9951 64.8164 52.0218 64.8046C52.1134 64.764 52.2003 64.7172 52.2828 64.6658L52.3344 64.6556L57.208 61.549L66.1828 54.85L71.3377 50.0132L71.3288 50.0041L73.102 48.2979L73.1374 48.186L77.1152 44.5936L82.5461 37.4529L86.462 30.3381L88.8098 20.2306L91.7336 14.1398L96.181 8.52603L101.169 4.91616L107.176 1.79205L111.198 0.715584L122.812 0.514471L126.869 1.45067ZM25.45 56.962C19.3144 56.8549 14.2539 61.7244 14.1472 67.8383C14.0405 73.9521 18.928 78.995 25.0635 79.1021C31.199 79.2092 36.2595 74.3399 36.3663 68.2261C36.473 62.1123 31.5855 57.0691 25.45 56.962Z" fill="white"/>
<path fill-rule="evenodd" clip-rule="evenodd" d="M125.915 45.6289C139.442 45.865 150.22 56.7572 149.99 69.9575C149.759 83.1579 138.607 93.6676 125.081 93.4315C123.321 93.4008 121.607 93.1891 119.958 92.8157L119.438 92.8066L111.394 90.6065L100.853 86.818L90.7985 84.0683L82.7368 82.8977L66.0726 82.6068L66.073 82.5864L63.898 82.5484L63.9024 82.297L63.987 82.2336C63.9967 82.2235 64.0078 82.2148 64.0205 82.2084L65.4368 81.1498C65.4493 81.1312 65.4648 81.1104 65.4809 81.0936C65.5045 81.0691 65.5307 81.0428 65.5793 80.999C65.6087 80.9725 65.6366 80.9588 65.6564 80.9501C65.6676 80.9453 65.6677 80.945 65.6716 80.9432L65.6752 80.9404C65.6785 80.9374 65.6825 80.9333 65.6881 80.9274C65.6975 80.9175 65.7159 80.8977 65.7378 80.881C65.7649 80.8602 65.7799 80.8432 65.8149 80.8121C65.8327 80.7963 65.8495 80.7844 65.8608 80.7763C65.8724 80.768 65.8799 80.7626 65.8878 80.7557C65.9259 80.7222 65.9517 80.7042 65.9785 80.6867C65.9866 80.6813 65.9947 80.6763 66.0007 80.6727C66.0072 80.6688 66.0116 80.6662 66.0156 80.6637C66.022 80.6596 66.0243 80.6574 66.0243 80.6574C66.0315 80.6498 66.0386 80.6432 66.0441 80.638L66.0594 80.6232C66.0642 80.6148 66.0694 80.6061 66.0732 80.5994C66.0752 80.5958 66.0775 80.5921 66.0787 80.5899L66.0806 80.5863L66.0832 80.5824C66.0832 80.5824 66.0853 80.5791 66.0872 80.5764C66.0872 80.5764 66.0909 80.5717 66.0942 80.5679C66.0959 80.5659 66.0993 80.5621 66.1037 80.5581C66.1037 80.5581 66.1064 80.5565 66.1085 80.5549L66.1086 80.5477L68.2974 79.0114L68.5087 78.8539L68.5133 78.86L73.2683 75.5235L83.4935 68.4933L93.2139 61.454L101.906 55.427L109.056 50.9174L109.63 50.6949L112.936 48.9946C113.684 48.5579 114.459 48.1598 115.256 47.8017L115.569 47.6409C115.606 47.6218 115.645 47.6138 115.685 47.6139C118.812 46.2798 122.278 45.5654 125.915 45.6289ZM124.93 58.6984C118.794 58.5914 113.734 63.4609 113.627 69.5747C113.521 75.6885 118.408 80.7314 124.543 80.8385C130.679 80.9456 135.739 76.0764 135.846 69.9626C135.953 63.8487 131.065 58.8055 124.93 58.6984Z" fill="white"/>
<path d="M232.01 93.184C220.917 93.184 212.127 90.112 205.642 83.968C199.157 77.7387 195.914 68.864 195.914 57.344V35.84C195.914 24.32 199.157 15.488 205.642 9.344C212.127 3.11467 220.917 0 232.01 0C243.018 0 251.509 3.02934 257.482 9.08801C263.541 15.0613 266.57 23.296 266.57 33.792V34.56H249.93V33.28C249.93 27.9893 248.437 23.6373 245.45 20.224C242.549 16.8107 238.069 15.104 232.01 15.104C226.037 15.104 221.343 16.9387 217.93 20.608C214.517 24.2773 212.81 29.2693 212.81 35.584V57.6C212.81 63.8293 214.517 68.8213 217.93 72.576C221.343 76.2453 226.037 78.08 232.01 78.08C238.069 78.08 242.549 76.3733 245.45 72.96C248.437 69.4613 249.93 65.1093 249.93 59.904V57.6H266.57V59.392C266.57 69.888 263.541 78.1653 257.482 84.224C251.509 90.1973 243.018 93.184 232.01 93.184Z" fill="white"/>
<path d="M287.761 116.992V102.912H322.321C324.71 102.912 325.905 101.632 325.905 99.072V83.072H323.601C322.918 84.5227 321.852 85.9733 320.401 87.424C318.95 88.8747 316.988 90.0693 314.513 91.008C312.038 91.9467 308.881 92.416 305.041 92.416C300.092 92.416 295.74 91.3067 291.985 89.088C288.316 86.784 285.457 83.6267 283.409 79.616C281.361 75.6053 280.337 70.9973 280.337 65.792V27.904H296.465V64.512C296.465 69.2907 297.617 72.8747 299.921 75.264C302.31 77.6533 305.681 78.848 310.033 78.848C314.982 78.848 318.822 77.2267 321.553 73.984C324.284 70.656 325.649 66.048 325.649 60.16V27.904H341.777V102.656C341.777 107.008 340.497 110.464 337.937 113.024C335.377 115.669 331.964 116.992 327.697 116.992H287.761Z" fill="white"/>
<path d="M389.548 93.184C383.404 93.184 377.815 91.904 372.78 89.344C367.831 86.784 363.905 83.072 361.004 78.208C358.103 73.344 356.652 67.456 356.652 60.544V58.752C356.652 51.84 358.103 45.952 361.004 41.088C363.905 36.224 367.831 32.512 372.78 29.952C377.815 27.392 383.404 26.112 389.548 26.112C395.607 26.112 400.812 27.1787 405.164 29.312C409.516 31.4453 413.015 34.3893 415.66 38.144C418.391 41.8133 420.183 45.9947 421.036 50.688L405.42 54.016C405.079 51.456 404.311 49.152 403.116 47.104C401.921 45.056 400.215 43.4347 397.996 42.24C395.863 41.0453 393.175 40.448 389.932 40.448C386.689 40.448 383.745 41.1733 381.1 42.624C378.54 43.9893 376.492 46.08 374.956 48.896C373.505 51.6267 372.78 54.9973 372.78 59.008V60.288C372.78 64.2987 373.505 67.712 374.956 70.528C376.492 73.2587 378.54 75.3493 381.1 76.8C383.745 78.1653 386.689 78.848 389.932 78.848C394.796 78.848 398.465 77.6107 400.94 75.136C403.5 72.576 405.121 69.248 405.804 65.152L421.42 68.864C420.311 73.3867 418.391 77.5253 415.66 81.28C413.015 84.9493 409.516 87.8507 405.164 89.984C400.812 92.1173 395.607 93.184 389.548 93.184Z" fill="white"/>
<path d="M434.724 91.392V1.792H450.852V91.392H434.724Z" fill="white"/>
<path d="M497.652 93.184C491.337 93.184 485.748 91.8613 480.884 89.216C476.105 86.4853 472.351 82.688 469.62 77.824C466.975 72.8747 465.652 67.072 465.652 60.416V58.88C465.652 52.224 466.975 46.464 469.62 41.6C472.265 36.6507 475.977 32.8533 480.756 30.208C485.535 27.4773 491.081 26.112 497.396 26.112C503.625 26.112 509.044 27.52 513.652 30.336C518.26 33.0667 521.844 36.9067 524.404 41.856C526.964 46.72 528.244 52.3947 528.244 58.88V64.384H482.036C482.207 68.736 483.828 72.2773 486.9 75.008C489.972 77.7387 493.727 79.104 498.164 79.104C502.687 79.104 506.015 78.1227 508.148 76.16C510.281 74.1973 511.903 72.0213 513.012 69.632L526.196 76.544C525.001 78.7627 523.252 81.1947 520.948 83.84C518.729 86.4 515.743 88.6187 511.988 90.496C508.233 92.288 503.455 93.184 497.652 93.184ZM482.164 52.352H511.86C511.519 48.6827 510.025 45.7387 507.38 43.52C504.82 41.3013 501.449 40.192 497.268 40.192C492.916 40.192 489.46 41.3013 486.9 43.52C484.34 45.7387 482.761 48.6827 482.164 52.352Z" fill="white"/>
<path d="M576.135 93.184C565.042 93.184 556.252 90.112 549.767 83.968C543.282 77.7387 540.039 68.864 540.039 57.344V35.84C540.039 24.32 543.282 15.488 549.767 9.344C556.252 3.11467 565.042 0 576.135 0C587.143 0 595.634 3.02934 601.607 9.08801C607.666 15.0613 610.695 23.296 610.695 33.792V34.56H594.055V33.28C594.055 27.9893 592.562 23.6373 589.575 20.224C586.674 16.8107 582.194 15.104 576.135 15.104C570.162 15.104 565.468 16.9387 562.055 20.608C558.642 24.2773 556.935 29.2693 556.935 35.584V57.6C556.935 63.8293 558.642 68.8213 562.055 72.576C565.468 76.2453 570.162 78.08 576.135 78.08C582.194 78.08 586.674 76.3733 589.575 72.96C592.562 69.4613 594.055 65.1093 594.055 59.904V57.6H610.695V59.392C610.695 69.888 607.666 78.1653 601.607 84.224C595.634 90.1973 587.143 93.184 576.135 93.184Z" fill="white"/>
<path d="M644.686 93.184C640.163 93.184 636.11 92.416 632.526 90.88C628.942 89.2587 626.083 86.9547 623.95 83.968C621.902 80.896 620.878 77.184 620.878 72.832C620.878 68.48 621.902 64.8533 623.95 61.952C626.083 58.9653 628.985 56.7467 632.654 55.296C636.409 53.76 640.675 52.992 645.454 52.992H662.862V49.408C662.862 46.4213 661.923 43.9893 660.046 42.112C658.169 40.1493 655.182 39.168 651.086 39.168C647.075 39.168 644.089 40.1067 642.126 41.984C640.163 43.776 638.883 46.1227 638.286 49.024L623.438 44.032C624.462 40.7893 626.083 37.8453 628.302 35.2C630.606 32.4693 633.635 30.2933 637.39 28.672C641.23 26.9653 645.881 26.112 651.342 26.112C659.705 26.112 666.318 28.2027 671.182 32.384C676.046 36.5653 678.478 42.624 678.478 50.56V74.24C678.478 76.8 679.673 78.08 682.062 78.08H687.182V91.392H676.43C673.273 91.392 670.67 90.624 668.622 89.088C666.574 87.552 665.55 85.504 665.55 82.944V82.816H663.118C662.777 83.84 662.009 85.2053 660.814 86.912C659.619 88.5333 657.742 89.984 655.182 91.264C652.622 92.544 649.123 93.184 644.686 93.184ZM647.502 80.128C652.025 80.128 655.694 78.8907 658.51 76.416C661.411 73.856 662.862 70.4853 662.862 66.304V65.024H646.606C643.619 65.024 641.273 65.664 639.566 66.944C637.859 68.224 637.006 70.016 637.006 72.32C637.006 74.624 637.902 76.5013 639.694 77.952C641.486 79.4027 644.089 80.128 647.502 80.128Z" fill="white"/>
<path d="M698.974 91.392V27.904H714.846V35.072H717.15C718.089 32.512 719.625 30.6347 721.758 29.44C723.977 28.2453 726.537 27.648 729.438 27.648H737.118V41.984H729.182C725.086 41.984 721.715 43.0933 719.07 45.312C716.425 47.4453 715.102 50.7733 715.102 55.296V91.392H698.974Z" fill="white"/>
<path d="M776.402 93.184C770.087 93.184 764.498 91.8613 759.634 89.216C754.855 86.4853 751.101 82.688 748.37 77.824C745.725 72.8747 744.402 67.072 744.402 60.416V58.88C744.402 52.224 745.725 46.464 748.37 41.6C751.015 36.6507 754.727 32.8533 759.506 30.208C764.285 27.4773 769.831 26.112 776.146 26.112C782.375 26.112 787.794 27.52 792.402 30.336C797.01 33.0667 800.594 36.9067 803.154 41.856C805.714 46.72 806.994 52.3947 806.994 58.88V64.384H760.786C760.957 68.736 762.578 72.2773 765.65 75.008C768.722 77.7387 772.477 79.104 776.914 79.104C781.437 79.104 784.765 78.1227 786.898 76.16C789.031 74.1973 790.653 72.0213 791.762 69.632L804.946 76.544C803.751 78.7627 802.002 81.1947 799.698 83.84C797.479 86.4 794.493 88.6187 790.738 90.496C786.983 92.288 782.205 93.184 776.402 93.184ZM760.914 52.352H790.61C790.269 48.6827 788.775 45.7387 786.13 43.52C783.57 41.3013 780.199 40.192 776.018 40.192C771.666 40.192 768.21 41.3013 765.65 43.52C763.09 45.7387 761.511 48.6827 760.914 52.352Z" fill="white"/>
</svg>
