<svg width="612" height="117" viewBox="0 0 612 117" fill="none" xmlns="http://www.w3.org/2000/svg">
<path d="M36.096 93.184C25.0027 93.184 16.2133 90.112 9.72801 83.968C3.24267 77.7387 6.19888e-06 68.864 6.19888e-06 57.344V35.84C6.19888e-06 24.32 3.24267 15.488 9.72801 9.344C16.2133 3.11467 25.0027 0 36.096 0C47.104 0 55.5947 3.02934 61.568 9.08801C67.6267 15.0613 70.656 23.296 70.656 33.792V34.56H54.016V33.28C54.016 27.9893 52.5227 23.6373 49.536 20.224C46.6347 16.8107 42.1547 15.104 36.096 15.104C30.1227 15.104 25.4293 16.9387 22.016 20.608C18.6027 24.2773 16.896 29.2693 16.896 35.584V57.6C16.896 63.8293 18.6027 68.8213 22.016 72.576C25.4293 76.2453 30.1227 78.08 36.096 78.08C42.1547 78.08 46.6347 76.3733 49.536 72.96C52.5227 69.4613 54.016 65.1093 54.016 59.904V57.6H70.656V59.392C70.656 69.888 67.6267 78.1653 61.568 84.224C55.5947 90.1973 47.104 93.184 36.096 93.184ZM91.847 116.992V102.912H126.407C128.796 102.912 129.991 101.632 129.991 99.072V83.072H127.687C127.004 84.5227 125.938 85.9733 124.487 87.424C123.036 88.8747 121.074 90.0693 118.599 91.008C116.124 91.9467 112.967 92.416 109.127 92.416C104.178 92.416 99.8257 91.3067 96.071 89.088C92.4017 86.784 89.543 83.6267 87.495 79.616C85.447 75.6053 84.423 70.9973 84.423 65.792V27.904H100.551V64.512C100.551 69.2907 101.703 72.8747 104.007 75.264C106.396 77.6533 109.767 78.848 114.119 78.848C119.068 78.848 122.908 77.2267 125.639 73.984C128.37 70.656 129.735 66.048 129.735 60.16V27.904H145.863V102.656C145.863 107.008 144.583 110.464 142.023 113.024C139.463 115.669 136.05 116.992 131.783 116.992H91.847ZM193.634 93.184C187.49 93.184 181.901 91.904 176.866 89.344C171.917 86.784 167.991 83.072 165.09 78.208C162.189 73.344 160.738 67.456 160.738 60.544V58.752C160.738 51.84 162.189 45.952 165.09 41.088C167.991 36.224 171.917 32.512 176.866 29.952C181.901 27.392 187.49 26.112 193.634 26.112C199.693 26.112 204.898 27.1787 209.25 29.312C213.602 31.4453 217.101 34.3893 219.746 38.144C222.477 41.8133 224.269 45.9947 225.122 50.688L209.506 54.016C209.165 51.456 208.397 49.152 207.202 47.104C206.007 45.056 204.301 43.4347 202.082 42.24C199.949 41.0453 197.261 40.448 194.018 40.448C190.775 40.448 187.831 41.1733 185.186 42.624C182.626 43.9893 180.578 46.08 179.042 48.896C177.591 51.6267 176.866 54.9973 176.866 59.008V60.288C176.866 64.2987 177.591 67.712 179.042 70.528C180.578 73.2587 182.626 75.3493 185.186 76.8C187.831 78.1653 190.775 78.848 194.018 78.848C198.882 78.848 202.551 77.6107 205.026 75.136C207.586 72.576 209.207 69.248 209.89 65.152L225.506 68.864C224.397 73.3867 222.477 77.5253 219.746 81.28C217.101 84.9493 213.602 87.8507 209.25 89.984C204.898 92.1173 199.693 93.184 193.634 93.184ZM238.81 91.392V1.792H254.938V91.392H238.81ZM301.738 93.184C295.423 93.184 289.834 91.8613 284.97 89.216C280.191 86.4853 276.437 82.688 273.706 77.824C271.061 72.8747 269.738 67.072 269.738 60.416V58.88C269.738 52.224 271.061 46.464 273.706 41.6C276.351 36.6507 280.063 32.8533 284.842 30.208C289.621 27.4773 295.167 26.112 301.482 26.112C307.711 26.112 313.13 27.52 317.738 30.336C322.346 33.0667 325.93 36.9067 328.49 41.856C331.05 46.72 332.33 52.3947 332.33 58.88V64.384H286.122C286.293 68.736 287.914 72.2773 290.986 75.008C294.058 77.7387 297.813 79.104 302.25 79.104C306.773 79.104 310.101 78.1227 312.234 76.16C314.367 74.1973 315.989 72.0213 317.098 69.632L330.282 76.544C329.087 78.7627 327.338 81.1947 325.034 83.84C322.815 86.4 319.829 88.6187 316.074 90.496C312.319 92.288 307.541 93.184 301.738 93.184ZM286.25 52.352H315.946C315.605 48.6827 314.111 45.7387 311.466 43.52C308.906 41.3013 305.535 40.192 301.354 40.192C297.002 40.192 293.546 41.3013 290.986 43.52C288.426 45.7387 286.847 48.6827 286.25 52.352ZM380.221 93.184C369.128 93.184 360.338 90.112 353.853 83.968C347.368 77.7387 344.125 68.864 344.125 57.344V35.84C344.125 24.32 347.368 15.488 353.853 9.344C360.338 3.11467 369.128 0 380.221 0C391.229 0 399.72 3.02934 405.693 9.08801C411.752 15.0613 414.781 23.296 414.781 33.792V34.56H398.141V33.28C398.141 27.9893 396.648 23.6373 393.661 20.224C390.76 16.8107 386.28 15.104 380.221 15.104C374.248 15.104 369.554 16.9387 366.141 20.608C362.728 24.2773 361.021 29.2693 361.021 35.584V57.6C361.021 63.8293 362.728 68.8213 366.141 72.576C369.554 76.2453 374.248 78.08 380.221 78.08C386.28 78.08 390.76 76.3733 393.661 72.96C396.648 69.4613 398.141 65.1093 398.141 59.904V57.6H414.781V59.392C414.781 69.888 411.752 78.1653 405.693 84.224C399.72 90.1973 391.229 93.184 380.221 93.184ZM448.772 93.184C444.249 93.184 440.196 92.416 436.612 90.88C433.028 89.2587 430.169 86.9547 428.036 83.968C425.988 80.896 424.964 77.184 424.964 72.832C424.964 68.48 425.988 64.8533 428.036 61.952C430.169 58.9653 433.071 56.7467 436.74 55.296C440.495 53.76 444.761 52.992 449.54 52.992H466.948V49.408C466.948 46.4213 466.009 43.9893 464.132 42.112C462.255 40.1493 459.268 39.168 455.172 39.168C451.161 39.168 448.175 40.1067 446.212 41.984C444.249 43.776 442.969 46.1227 442.372 49.024L427.524 44.032C428.548 40.7893 430.169 37.8453 432.388 35.2C434.692 32.4693 437.721 30.2933 441.476 28.672C445.316 26.9653 449.967 26.112 455.428 26.112C463.791 26.112 470.404 28.2027 475.268 32.384C480.132 36.5653 482.564 42.624 482.564 50.56V74.24C482.564 76.8 483.759 78.08 486.148 78.08H491.268V91.392H480.516C477.359 91.392 474.756 90.624 472.708 89.088C470.66 87.552 469.636 85.504 469.636 82.944V82.816H467.204C466.863 83.84 466.095 85.2053 464.9 86.912C463.705 88.5333 461.828 89.984 459.268 91.264C456.708 92.544 453.209 93.184 448.772 93.184ZM451.588 80.128C456.111 80.128 459.78 78.8907 462.596 76.416C465.497 73.856 466.948 70.4853 466.948 66.304V65.024H450.692C447.705 65.024 445.359 65.664 443.652 66.944C441.945 68.224 441.092 70.016 441.092 72.32C441.092 74.624 441.988 76.5013 443.78 77.952C445.572 79.4027 448.175 80.128 451.588 80.128ZM503.06 91.392V27.904H518.932V35.072H521.236C522.175 32.512 523.711 30.6347 525.844 29.44C528.063 28.2453 530.623 27.648 533.524 27.648H541.204V41.984H533.268C529.172 41.984 525.801 43.0933 523.156 45.312C520.511 47.4453 519.188 50.7733 519.188 55.296V91.392H503.06ZM580.488 93.184C574.173 93.184 568.584 91.8613 563.72 89.216C558.941 86.4853 555.187 82.688 552.456 77.824C549.811 72.8747 548.488 67.072 548.488 60.416V58.88C548.488 52.224 549.811 46.464 552.456 41.6C555.101 36.6507 558.813 32.8533 563.592 30.208C568.371 27.4773 573.917 26.112 580.232 26.112C586.461 26.112 591.88 27.52 596.488 30.336C601.096 33.0667 604.68 36.9067 607.24 41.856C609.8 46.72 611.08 52.3947 611.08 58.88V64.384H564.872C565.043 68.736 566.664 72.2773 569.736 75.008C572.808 77.7387 576.563 79.104 581 79.104C585.523 79.104 588.851 78.1227 590.984 76.16C593.117 74.1973 594.739 72.0213 595.848 69.632L609.032 76.544C607.837 78.7627 606.088 81.1947 603.784 83.84C601.565 86.4 598.579 88.6187 594.824 90.496C591.069 92.288 586.291 93.184 580.488 93.184ZM565 52.352H594.696C594.355 48.6827 592.861 45.7387 590.216 43.52C587.656 41.3013 584.285 40.192 580.104 40.192C575.752 40.192 572.296 41.3013 569.736 43.52C567.176 45.7387 565.597 48.6827 565 52.352Z" fill="white"/>
</svg>
