<svg width="784" height="121" viewBox="0 0 784 121" fill="none" xmlns="http://www.w3.org/2000/svg">
<path fill-rule="evenodd" clip-rule="evenodd" d="M131.098 0.967405L130.613 3.05619L126.165 7.35932L126.199 7.39695L124.757 8.72181L122.473 10.9307C119.165 12.414 116.818 15.8355 116.748 19.8589C116.653 25.315 120.781 29.8113 125.968 29.9018C129.189 29.958 132.06 28.3023 133.797 25.7332L136.825 23.3289L139.282 21.1101L144.418 16.3402L145.983 16.3131L146.55 18.9039L146.724 28.783L144.243 36.1079L140.691 41.8907L138.775 44.2652L133.852 43.5646L133.836 43.5625L124.921 43.4069L124.895 43.412L121.228 44.1281L121.211 44.1315L121.195 44.1372L117.52 45.3731L117.498 45.3805L117.478 45.3916L112.834 47.9292L111.058 48.6458L102.8 53.9899L93.5269 60.9122L85.2876 67.2964L72.9105 75.833L65.6876 80.6391L54.3174 87.0778L47.0762 90.8442L36.7041 94.6647L34.1042 95.23L32.8222 95.252C30.9317 95.637 28.9657 95.8242 26.9495 95.789C25.5863 95.7652 24.2495 95.6402 22.9467 95.4229L22.6245 95.4287L21.9149 95.2297C20.8878 95.0167 19.8838 94.746 18.9068 94.4204C7.86102 91.5505 -0.203387 81.4486 0.00390667 69.5728C0.247018 55.6452 11.7746 44.5526 25.7516 44.7966C28.111 44.8378 30.3891 45.2 32.5454 45.8397C38.0024 47.9982 44.2848 49.2809 50.9864 49.3979C59.2315 49.5418 66.9036 47.8998 73.2286 44.9858L72.3988 46.715L66.2375 52.543L56.4512 59.9944L51.884 62.9047C51.8497 62.9252 51.8161 62.9466 51.7833 62.9688L51.7736 62.9753C50.9677 63.5281 50.6351 64.5631 51.0324 65.4525C51.3673 66.2018 52.126 66.6362 52.9258 66.619L52.7893 66.6469C52.8152 66.7822 52.84 66.9177 52.8636 67.0537L53.8342 66.4349L53.6727 66.4676C53.7005 66.4566 53.7283 66.4454 53.7559 66.4331C53.8505 66.3912 53.9403 66.3428 54.0255 66.2897L54.0788 66.2792L59.115 63.069L68.3889 56.1467L73.7156 51.1487L73.7065 51.1393L75.5387 49.3762L75.5753 49.2605L79.6857 45.5484L85.2977 38.1697L89.3441 30.8177L91.7701 20.3734L94.7914 14.0795L99.387 8.27861L104.541 4.54841L110.748 1.32016L114.904 0.207817L126.906 0L131.098 0.967405ZM26.2983 58.3291C19.9582 58.2184 14.729 63.2503 14.6188 69.5679C14.5086 75.8855 19.5589 81.0965 25.899 81.2072C32.239 81.3179 37.4682 76.2863 37.5785 69.9687C37.6888 63.6511 32.6384 58.4397 26.2983 58.3291Z" fill="white" fill-opacity="0.96"/>
<path fill-rule="evenodd" clip-rule="evenodd" d="M130.113 46.6182C144.09 46.8622 155.227 58.1175 154.989 71.7578C154.751 85.3982 143.227 96.2583 129.25 96.0143C127.431 95.9825 125.66 95.7637 123.956 95.3779L123.42 95.3686L115.108 93.0951L104.215 89.1804L93.8251 86.3389L85.4947 85.1293L68.2751 84.8288L68.2754 84.8077L66.028 84.7684L66.0325 84.5086L66.1199 84.4431C66.1299 84.4327 66.1414 84.4236 66.1545 84.417L67.618 83.3232C67.6309 83.304 67.647 83.2824 67.6636 83.2651C67.6879 83.2398 67.715 83.2126 67.7653 83.1673C67.7956 83.1399 67.8245 83.1258 67.8449 83.1169C67.8565 83.1118 67.8566 83.1116 67.8606 83.1097C67.8606 83.1097 67.863 83.1082 67.8644 83.1068C67.8678 83.1036 67.8719 83.0994 67.8777 83.0934C67.8875 83.0831 67.9064 83.0627 67.929 83.0454C67.9571 83.0239 67.9725 83.0064 68.0087 82.9742C68.0271 82.9579 68.0445 82.9456 68.0562 82.9373C68.0682 82.9287 68.0759 82.923 68.084 82.9159C68.1234 82.8813 68.1501 82.8627 68.1778 82.8446C68.1862 82.8391 68.1946 82.8338 68.2007 82.8302C68.2074 82.8262 68.2119 82.8235 68.2161 82.8208C68.2228 82.8166 68.2252 82.8143 68.2252 82.8143C68.2326 82.8065 68.2399 82.7997 68.2456 82.7943L68.2614 82.779C68.2664 82.7703 68.2717 82.7614 68.2756 82.7545C68.2777 82.7507 68.28 82.7469 68.2814 82.7446L68.2833 82.7409L68.286 82.7369C68.286 82.7369 68.2881 82.7334 68.2902 82.7306C68.2902 82.7306 68.2939 82.7258 68.2973 82.7219C68.2991 82.7198 68.3026 82.7159 68.3072 82.7117C68.3072 82.7117 68.31 82.7101 68.3121 82.7084L68.3122 82.701L70.5739 81.1135L70.7923 80.9507L70.797 80.9571L75.7106 77.5093L86.2766 70.2448L96.321 62.9708L105.303 56.7429L112.692 52.0831L113.284 51.8531L116.7 50.0961C117.474 49.6449 118.274 49.2335 119.098 48.8635L119.421 48.6973C119.459 48.6776 119.5 48.6693 119.541 48.6694C122.773 47.2908 126.354 46.5526 130.113 46.6182ZM129.094 60.1234C122.754 60.0128 117.525 65.0446 117.415 71.3623C117.305 77.6798 122.355 82.8908 128.695 83.0015C135.035 83.1122 140.264 78.0806 140.374 71.763C140.484 65.4454 135.434 60.234 129.094 60.1234Z" fill="white" fill-opacity="0.96"/>
<path d="M237.715 97.2468C231.235 97.2468 225.195 96.2068 219.595 94.1268C214.075 91.9668 209.275 88.9268 205.195 85.0068C201.115 81.0868 197.915 76.4868 195.595 71.2068C193.355 65.9268 192.235 60.1268 192.235 53.8068C192.235 47.4868 193.355 41.6868 195.595 36.4068C197.915 31.1268 201.115 26.5268 205.195 22.6068C209.355 18.6868 214.195 15.6868 219.715 13.6068C225.235 11.4468 231.275 10.3668 237.835 10.3668C245.115 10.3668 251.675 11.6468 257.515 14.2068C263.435 16.6868 268.395 20.3668 272.395 25.2468L259.915 36.7668C257.035 33.4868 253.835 31.0468 250.315 29.4468C246.795 27.7668 242.955 26.9268 238.795 26.9268C234.875 26.9268 231.275 27.5668 227.995 28.8468C224.715 30.1268 221.875 31.9668 219.475 34.3668C217.075 36.7668 215.195 39.6068 213.835 42.8868C212.555 46.1668 211.915 49.8068 211.915 53.8068C211.915 57.8068 212.555 61.4468 213.835 64.7268C215.195 68.0068 217.075 70.8468 219.475 73.2468C221.875 75.6468 224.715 77.4868 227.995 78.7668C231.275 80.0468 234.875 80.6868 238.795 80.6868C242.955 80.6868 246.795 79.8868 250.315 78.2868C253.835 76.6068 257.035 74.0868 259.915 70.7268L272.395 82.2468C268.395 87.1268 263.435 90.8468 257.515 93.4068C251.675 95.9668 245.075 97.2468 237.715 97.2468Z" fill="white"/>
<path d="M288.762 120.047C285.402 120.047 282.082 119.527 278.802 118.487C275.522 117.447 272.842 116.007 270.762 114.167L277.602 100.847C279.042 102.127 280.682 103.127 282.522 103.847C284.442 104.567 286.322 104.927 288.162 104.927C290.802 104.927 292.882 104.287 294.402 103.007C296.002 101.807 297.442 99.7668 298.722 96.8868L302.082 88.9668L303.522 86.9268L326.682 31.2468H344.682L315.522 99.7668C313.442 104.967 311.042 109.047 308.322 112.007C305.682 114.967 302.722 117.047 299.442 118.247C296.242 119.447 292.682 120.047 288.762 120.047ZM299.802 98.3268L271.002 31.2468H290.322L312.642 85.2468L299.802 98.3268Z" fill="white"/>
<path d="M378.163 96.7668C371.203 96.7668 365.003 95.3668 359.563 92.5668C354.123 89.6868 349.843 85.7268 346.723 80.6868C343.683 75.6468 342.163 69.9268 342.163 63.5268C342.163 57.0468 343.683 51.3268 346.723 46.3668C349.843 41.3268 354.123 37.4068 359.563 34.6068C365.003 31.7268 371.203 30.2868 378.163 30.2868C384.963 30.2868 390.883 31.7268 395.923 34.6068C400.963 37.4068 404.683 41.4468 407.083 46.7268L392.563 54.5268C390.883 51.4868 388.763 49.2468 386.203 47.8068C383.723 46.3668 381.003 45.6468 378.043 45.6468C374.843 45.6468 371.963 46.3668 369.403 47.8068C366.843 49.2468 364.803 51.2868 363.283 53.9268C361.843 56.5668 361.123 59.7668 361.123 63.5268C361.123 67.2868 361.843 70.4868 363.283 73.1268C364.803 75.7668 366.843 77.8068 369.403 79.2468C371.963 80.6868 374.843 81.4068 378.043 81.4068C381.003 81.4068 383.723 80.7268 386.203 79.3668C388.763 77.9268 390.883 75.6468 392.563 72.5268L407.083 80.4468C404.683 85.6468 400.963 89.6868 395.923 92.5668C390.883 95.3668 384.963 96.7668 378.163 96.7668Z" fill="white"/>
<path d="M413.91 95.8068V6.76678H432.63V95.8068H413.91Z" fill="white"/>
<path d="M478.444 96.7668C471.084 96.7668 464.604 95.3268 459.004 92.4468C453.484 89.5668 449.204 85.6468 446.164 80.6868C443.124 75.6468 441.604 69.9268 441.604 63.5268C441.604 57.0468 443.084 51.3268 446.044 46.3668C449.084 41.3268 453.204 37.4068 458.404 34.6068C463.604 31.7268 469.484 30.2868 476.044 30.2868C482.364 30.2868 488.044 31.6468 493.084 34.3668C498.204 37.0068 502.244 40.8468 505.204 45.8868C508.164 50.8468 509.644 56.8068 509.644 63.7668C509.644 64.4868 509.604 65.3268 509.524 66.2868C509.444 67.1668 509.364 68.0068 509.284 68.8068H456.844V57.8868H499.444L492.244 61.1268C492.244 57.7668 491.564 54.8468 490.204 52.3668C488.844 49.8868 486.964 47.9668 484.564 46.6068C482.164 45.1668 479.364 44.4468 476.164 44.4468C472.964 44.4468 470.124 45.1668 467.644 46.6068C465.244 47.9668 463.364 49.9268 462.004 52.4868C460.644 54.9668 459.964 57.9268 459.964 61.3668V64.2468C459.964 67.7668 460.724 70.8868 462.244 73.6068C463.844 76.2468 466.044 78.2868 468.844 79.7268C471.724 81.0868 475.084 81.7668 478.924 81.7668C482.364 81.7668 485.364 81.2468 487.924 80.2068C490.564 79.1668 492.964 77.6068 495.124 75.5268L505.084 86.3268C502.124 89.6868 498.404 92.2868 493.924 94.1268C489.444 95.8868 484.284 96.7668 478.444 96.7668Z" fill="white"/>
<path d="M560.027 97.2468C553.547 97.2468 547.507 96.2068 541.907 94.1268C536.387 91.9668 531.587 88.9268 527.507 85.0068C523.427 81.0868 520.227 76.4868 517.907 71.2068C515.667 65.9268 514.547 60.1268 514.547 53.8068C514.547 47.4868 515.667 41.6868 517.907 36.4068C520.227 31.1268 523.427 26.5268 527.507 22.6068C531.667 18.6868 536.507 15.6868 542.027 13.6068C547.547 11.4468 553.587 10.3668 560.147 10.3668C567.427 10.3668 573.987 11.6468 579.827 14.2068C585.747 16.6868 590.707 20.3668 594.707 25.2468L582.227 36.7668C579.347 33.4868 576.147 31.0468 572.627 29.4468C569.107 27.7668 565.267 26.9268 561.107 26.9268C557.187 26.9268 553.587 27.5668 550.307 28.8468C547.027 30.1268 544.187 31.9668 541.787 34.3668C539.387 36.7668 537.507 39.6068 536.147 42.8868C534.867 46.1668 534.227 49.8068 534.227 53.8068C534.227 57.8068 534.867 61.4468 536.147 64.7268C537.507 68.0068 539.387 70.8468 541.787 73.2468C544.187 75.6468 547.027 77.4868 550.307 78.7668C553.587 80.0468 557.187 80.6868 561.107 80.6868C565.267 80.6868 569.107 79.8868 572.627 78.2868C576.147 76.6068 579.347 74.0868 582.227 70.7268L594.707 82.2468C590.707 87.1268 585.747 90.8468 579.827 93.4068C573.987 95.9668 567.387 97.2468 560.027 97.2468Z" fill="white"/>
<path d="M642.163 95.8068V83.2068L640.963 80.4468V57.8868C640.963 53.8868 639.723 50.7668 637.243 48.5268C634.843 46.2868 631.123 45.1668 626.083 45.1668C622.643 45.1668 619.243 45.7268 615.883 46.8468C612.603 47.8868 609.803 49.3268 607.483 51.1668L600.763 38.0868C604.283 35.6068 608.523 33.6868 613.483 32.3268C618.443 30.9668 623.483 30.2868 628.603 30.2868C638.443 30.2868 646.083 32.6068 651.523 37.2468C656.963 41.8868 659.683 49.1268 659.683 58.9668V95.8068H642.163ZM622.483 96.7668C617.443 96.7668 613.123 95.9268 609.523 94.2468C605.923 92.4868 603.163 90.1268 601.243 87.1668C599.323 84.2068 598.363 80.8868 598.363 77.2068C598.363 73.3668 599.283 70.0068 601.123 67.1268C603.043 64.2468 606.043 62.0068 610.123 60.4068C614.203 58.7268 619.523 57.8868 626.083 57.8868H643.243V68.8068H628.123C623.723 68.8068 620.683 69.5268 619.003 70.9668C617.403 72.4068 616.603 74.2068 616.603 76.3668C616.603 78.7668 617.523 80.6868 619.363 82.1268C621.283 83.4868 623.883 84.1668 627.163 84.1668C630.283 84.1668 633.083 83.4468 635.563 82.0068C638.043 80.4868 639.843 78.2868 640.963 75.4068L643.843 84.0468C642.483 88.2068 640.003 91.3668 636.403 93.5268C632.803 95.6868 628.163 96.7668 622.483 96.7668Z" fill="white"/>
<path d="M673.026 95.8068V31.2468H690.906V49.4868L688.386 44.2068C690.306 39.6468 693.386 36.2068 697.626 33.8868C701.866 31.4868 707.026 30.2868 713.106 30.2868V47.5668C712.306 47.4868 711.586 47.4468 710.946 47.4468C710.306 47.3668 709.626 47.3268 708.906 47.3268C703.786 47.3268 699.626 48.8068 696.426 51.7668C693.306 54.6468 691.746 59.1668 691.746 65.3268V95.8068H673.026Z" fill="white"/>
<path d="M752.208 96.7668C744.848 96.7668 738.368 95.3268 732.768 92.4468C727.248 89.5668 722.968 85.6468 719.928 80.6868C716.888 75.6468 715.368 69.9268 715.368 63.5268C715.368 57.0468 716.848 51.3268 719.808 46.3668C722.848 41.3268 726.968 37.4068 732.168 34.6068C737.368 31.7268 743.248 30.2868 749.808 30.2868C756.128 30.2868 761.808 31.6468 766.848 34.3668C771.968 37.0068 776.008 40.8468 778.968 45.8868C781.928 50.8468 783.408 56.8068 783.408 63.7668C783.408 64.4868 783.368 65.3268 783.288 66.2868C783.208 67.1668 783.128 68.0068 783.048 68.8068H730.608V57.8868H773.208L766.008 61.1268C766.008 57.7668 765.328 54.8468 763.968 52.3668C762.608 49.8868 760.728 47.9668 758.328 46.6068C755.928 45.1668 753.128 44.4468 749.928 44.4468C746.728 44.4468 743.888 45.1668 741.408 46.6068C739.008 47.9668 737.128 49.9268 735.768 52.4868C734.408 54.9668 733.728 57.9268 733.728 61.3668V64.2468C733.728 67.7668 734.488 70.8868 736.008 73.6068C737.608 76.2468 739.808 78.2868 742.608 79.7268C745.488 81.0868 748.848 81.7668 752.688 81.7668C756.128 81.7668 759.128 81.2468 761.688 80.2068C764.328 79.1668 766.728 77.6068 768.888 75.5268L778.848 86.3268C775.888 89.6868 772.168 92.2868 767.688 94.1268C763.208 95.8868 758.048 96.7668 752.208 96.7668Z" fill="white"/>
</svg>
