<svg width="191" height="119" viewBox="0 0 191 119" fill="none" xmlns="http://www.w3.org/2000/svg">
<path fill-rule="evenodd" clip-rule="evenodd" d="M161.545 1.19055L160.947 3.76086L155.465 9.05585L155.508 9.10216L153.73 10.7324L150.917 13.4504C146.841 15.2756 143.948 19.4857 143.862 24.4367C143.745 31.1506 148.832 36.6835 155.224 36.7951C159.192 36.8643 162.731 34.827 164.872 31.6658L168.602 28.7073L171.63 25.9771L177.958 20.1077L179.887 20.0744L180.586 23.2624L180.801 35.419L177.744 44.4324L173.367 51.5483L171.005 54.4701L164.94 53.6078L164.92 53.6052L153.935 53.4135L153.902 53.4197L149.384 54.3009L149.362 54.3051L149.343 54.312L144.814 55.8327L144.787 55.8418L144.762 55.8555L139.04 58.9779L136.851 59.8597L126.676 66.4355L115.249 74.9534L105.096 82.8091L89.8448 93.3133L80.9444 99.2271L66.9336 107.15L58.0106 111.784L45.2297 116.485L42.0259 117.181L40.4462 117.208C38.1166 117.681 35.6939 117.912 33.2095 117.868C31.5297 117.839 29.8824 117.685 28.2771 117.418L27.8799 117.425L27.0055 117.18C25.7399 116.918 24.5027 116.585 23.2988 116.184C9.68745 112.652 -0.250279 100.221 0.00480294 85.6077C0.303959 68.4694 14.5085 54.8199 31.7318 55.1205C34.6392 55.1713 37.4465 55.6171 40.1036 56.4044C46.828 59.0606 54.5696 60.6392 62.8278 60.7834C72.9878 60.9607 82.4419 58.9404 90.2358 55.3548L89.2132 57.4826L81.6211 64.654L69.5621 73.8228L63.9343 77.4039C63.892 77.4292 63.8506 77.4555 63.8102 77.4828L63.7981 77.4908C62.8051 78.1711 62.3953 79.4447 62.885 80.5391C63.2976 81.4611 64.2326 81.9957 65.2181 81.9745L65.0499 82.0089C65.0819 82.1753 65.1124 82.3422 65.1415 82.5095L66.3375 81.748L66.1385 81.7883C66.1727 81.7748 66.207 81.7609 66.2409 81.7459C66.3576 81.6942 66.4682 81.6347 66.5733 81.5694L66.6389 81.5564L72.8447 77.6064L84.2723 69.0885L90.836 62.9385L90.8248 62.9269L93.0826 60.7574L93.1276 60.6151L98.1925 56.0473L105.108 46.9678L110.094 37.921L113.083 25.069L116.806 17.3243L122.469 10.1863L128.82 5.59628L136.468 1.62402L141.589 0.255363L156.378 -5.23851e-07L161.545 1.19055ZM32.4059 71.7727C24.5933 71.6364 18.1498 77.8281 18.0141 85.6022C17.8785 93.3762 24.102 99.7886 31.9145 99.925C39.7271 100.061 46.1706 93.87 46.3064 86.096C46.4421 78.3219 40.2185 71.9091 32.4059 71.7727Z" fill="black"/>
<path fill-rule="evenodd" clip-rule="evenodd" d="M160.332 57.3653C177.555 57.6659 191.28 71.5162 190.987 88.3011C190.694 105.086 176.494 118.449 159.271 118.149C157.029 118.11 154.847 117.84 152.747 117.365L152.085 117.354L141.843 114.556L128.42 109.739L115.617 106.242L105.352 104.753L84.1329 104.383L84.1334 104.357L81.3639 104.308L81.3695 103.989L81.4771 103.908C81.4895 103.895 81.5037 103.884 81.5198 103.876L83.3232 102.53C83.3391 102.506 83.3589 102.48 83.3794 102.459C83.4094 102.427 83.4428 102.394 83.5046 102.338C83.5421 102.305 83.5777 102.287 83.6028 102.276C83.6171 102.27 83.6172 102.27 83.6222 102.267C83.6222 102.267 83.6251 102.265 83.6268 102.264C83.631 102.26 83.636 102.255 83.6432 102.247C83.6552 102.235 83.6786 102.209 83.7065 102.188C83.7411 102.162 83.7601 102.14 83.8046 102.101C83.8273 102.08 83.8487 102.065 83.8631 102.055C83.8779 102.045 83.8874 102.038 83.8974 102.029C83.946 101.986 83.9789 101.963 84.013 101.941C84.0234 101.934 84.0337 101.928 84.0412 101.923C84.0495 101.918 84.0551 101.915 84.0602 101.912C84.0684 101.907 84.0713 101.904 84.0713 101.904C84.0805 101.894 84.0895 101.886 84.0965 101.879L84.116 101.86C84.1222 101.85 84.1287 101.839 84.1335 101.83C84.1361 101.826 84.139 101.821 84.1406 101.818L84.143 101.814C84.143 101.814 84.1449 101.811 84.1463 101.809C84.147 101.807 84.1489 101.804 84.1514 101.801C84.1528 101.799 84.1561 101.795 84.1603 101.79C84.1625 101.788 84.1668 101.783 84.1724 101.778C84.1735 101.777 84.1759 101.776 84.1785 101.774L84.1786 101.764L86.9656 99.811L87.2347 99.6107L87.2405 99.6186L93.2952 95.3761L106.315 86.4372L118.692 77.4867L129.76 69.8233L138.865 64.0894L139.595 63.8065L143.804 61.6446C144.757 61.0893 145.743 60.5831 146.758 60.1278L147.157 59.9234C147.204 59.8991 147.254 59.8889 147.304 59.889C151.287 58.1927 155.7 57.2844 160.332 57.3653ZM159.077 73.9838C151.264 73.8475 144.821 80.0392 144.685 87.8132C144.55 95.5872 150.773 102 158.585 102.136C166.398 102.272 172.841 96.0811 172.977 88.3071C173.113 80.533 166.889 74.1202 159.077 73.9838Z" fill="black"/>
</svg>
