<svg width="531" height="137" viewBox="0 0 531 137" fill="none" xmlns="http://www.w3.org/2000/svg">
<path fill-rule="evenodd" clip-rule="evenodd" d="M505.814 34.5115L507.913 36.6029L510.011 32.4202L529.95 31.3741L531 32.4202V109.809L526.802 120.268L520.505 128.634L513.159 132.817L503.715 135.955L479.578 137L461.739 132.817L460.689 129.68L461.739 115.038L469.084 116.084L477.48 118.175H495.32L503.715 113.993L506.863 109.809L507.913 99.3511L499.518 103.535L491.122 105.626H481.677L469.084 101.443L459.64 93.0762L455.442 85.7561L453.343 76.3439V60.6569L457.541 47.0612L466.986 36.6029L475.381 31.3741L479.578 30.328H497.418L505.814 34.5115ZM481.677 51.2446L477.48 57.5195L476.43 60.6569V76.3439L481.677 84.7101L489.023 87.8474H499.518L506.863 83.664L508.962 80.5267V51.2446L496.369 47.0612H490.073L481.677 51.2446Z" fill="black"/>
<path fill-rule="evenodd" clip-rule="evenodd" d="M265.5 32.4202L271.796 36.6029L279.142 44.9698L282.29 53.336L283.339 57.5195V73.2065H230.869L234.017 82.6187L239.264 86.8014L243.462 88.8935H263.401L278.093 83.664L279.142 84.7101V100.397L269.698 104.581L257.105 106.672H245.561L230.869 103.535L220.375 97.2597L214.078 89.9388L208.832 77.3892V61.7021L211.98 50.1986L218.276 40.7863L224.573 35.5575L232.968 31.3741L242.412 29.2828H252.907L265.5 32.4202ZM238.215 46.0151L232.968 51.2446L229.82 58.5647V59.6108H262.351V53.336L258.153 47.0612L248.709 43.9238H245.561L238.215 46.0151Z" fill="black"/>
<path fill-rule="evenodd" clip-rule="evenodd" d="M428.157 34.5115L436.553 40.7863L442.85 50.1986L445.998 61.7021V74.2518L443.898 83.664L437.602 93.0762L432.355 98.3057L423.96 103.535L416.614 105.626H396.675L386.182 102.488L376.737 96.2137L370.441 87.8474L367.292 80.5267L366.243 75.2979V58.5647L370.441 49.1525L376.737 39.7403L388.28 32.4202L396.675 30.328H416.614L428.157 34.5115ZM395.626 50.1986L391.429 55.4273L389.33 60.6569V76.3439L394.577 84.7101L400.873 88.8935H411.368L417.664 84.7101L420.812 80.5267L422.911 73.2065V60.6569L417.664 50.1986L410.318 47.0612H402.972L395.626 50.1986Z" fill="black"/>
<path fill-rule="evenodd" clip-rule="evenodd" d="M70.3104 4.18354L78.7052 11.5036L81.8535 18.8245V34.5115L76.6066 42.8777L70.3104 47.0612V49.1525L78.7052 53.336L83.9529 59.6108L87.101 67.977V79.4813L83.9529 88.8935L77.6563 96.2137L68.2118 101.443L55.6188 104.581H1.04944L0 103.535V0H56.6677L70.3104 4.18354ZM23.0871 86.8014H50.3713L58.7671 83.664L62.9644 78.4353L64.0138 69.023L60.8657 62.7482L54.5691 59.6108L50.3713 58.5647H23.0871V86.8014ZM23.0871 41.8324H48.2729L55.6188 38.6949L58.7671 35.5575L59.816 26.1453L56.6677 19.8706L46.1743 16.7332H23.0871V41.8324Z" fill="black"/>
<path d="M120.682 32.4202V103.535L119.632 104.581H98.6441V32.4202L99.6937 31.3741H116.484L120.682 32.4202Z" fill="black"/>
<path d="M157.41 2.09134V58.5647L163.707 56.4734L177.349 40.7863L184.695 32.4202L188.893 31.3741H207.782V34.5115L198.337 44.9698L188.893 56.4734L182.596 63.7942L183.646 67.977L195.189 81.5727L204.634 93.0762L211.98 101.443L210.93 104.581H187.844L179.448 95.1684L162.658 74.2518L157.41 73.2065V103.535L156.362 104.581H136.422L135.373 103.535V2.09134L136.422 1.04607H156.362L157.41 2.09134Z" fill="black"/>
<path d="M320.069 84.7101H365.193L366.243 85.7561V104.581H296.982L295.932 103.535V6.27488L296.982 2.09134H320.069V84.7101Z" fill="black"/>
<path d="M121.731 4.18354V15.6871L119.632 19.8706L116.484 20.9159H101.792L97.5944 17.7785V4.18354L101.792 0H117.533L121.731 4.18354Z" fill="black"/>
</svg>
