<svg xmlns="http://www.w3.org/2000/svg" width="48" height="48" viewBox="0 0 48 48">
  <g transform="translate(2.033 2) scale(0.066)">
    <path d="M 46.202 3.022 C 35.162 5.914, 27.504 10.408, 18.854 19.070 C 5.913 32.026, 0.402 46.387, 1.232 64.988 C 1.805 77.844, 5.365 87.930, 12.950 98.185 C 21.428 109.647, 29.895 115.148, 50.500 122.579 C 61.383 126.504, 78.064 134.959, 87.394 141.278 C 104.806 153.071, 117.363 170.471, 130.134 200.500 C 137.985 218.960, 143.381 226.633, 154.061 234.523 C 165.175 242.734, 175.050 245.971, 189.040 245.988 C 206.370 246.010, 219.448 240.649, 231.522 228.575 C 239.455 220.641, 245.623 209.611, 248.057 199.001 C 250.124 189.992, 249.456 177.212, 246.450 168.256 C 240.459 150.409, 229.440 138.546, 212.246 131.430 C 177.769 117.161, 166.086 110.327, 151.883 96.120 C 141.356 85.590, 133.177 73.332, 126.104 57.487 C 114.205 30.830, 112.218 27.111, 106.820 21.396 C 90.689 4.317, 67.774 -2.629, 46.202 3.022 M 52.182 36.685 C 46.201 38.800, 38.733 46.400, 36.662 52.480 C 34.156 59.834, 34.493 67.590, 37.588 73.801 C 46.107 90.896, 68.610 94.136, 81.295 80.095 C 86.146 74.726, 88.060 69.842, 88.180 62.531 C 88.491 43.641, 70.018 30.377, 52.182 36.685 M 181 163.114 C 169.548 167.635, 162.869 179.561, 165.100 191.506 C 166.203 197.412, 168.036 200.728, 172.668 205.201 C 177.681 210.043, 182.605 212, 189.772 212 C 203.665 212, 214.938 200.816, 214.968 187 C 214.990 177.239, 208.472 167.175, 199.782 163.551 C 195.641 161.824, 184.901 161.574, 181 163.114 M 257.141 207.750 C 250.742 229.693, 230.909 249.101, 208.799 255.054 L 204.634 256.176 210.567 259.356 C 225.020 267.103, 236.959 278.226, 245.500 291.903 C 250.648 300.145, 252 301.425, 252 298.052 C 252 293.927, 257.351 279.185, 261.275 272.500 C 263.534 268.650, 268.785 262.104, 272.942 257.953 C 279.166 251.739, 282.302 249.532, 290.704 245.453 C 296.317 242.729, 300.919 240.275, 300.931 240 C 300.944 239.725, 297.702 237.700, 293.727 235.500 C 284.858 230.591, 270.160 216.363, 264.028 206.750 C 261.659 203.037, 259.649 200, 259.561 200 C 259.473 200, 258.384 203.488, 257.141 207.750 M 307 250.583 C 282.084 257.156, 263 281.751, 263 307.290 C 263 319.067, 264.354 325.211, 269.058 334.783 C 272.077 340.923, 274.988 344.932, 280.315 350.283 C 286.858 356.855, 289.102 358.300, 305.435 366.452 C 324.636 376.035, 335.166 383.161, 344.069 392.597 C 354.966 404.147, 363.856 420.746, 371.058 442.989 C 378.198 465.042, 384.665 475.150, 397 483.532 C 425.519 502.913, 463.676 495.624, 482.153 467.266 C 488.666 457.269, 491.973 446.405, 491.975 435 C 491.977 420.559, 488.754 411.005, 479.830 399 C 473.757 390.831, 466.520 385.509, 450.427 377.379 C 442.471 373.360, 432.932 368.100, 429.230 365.690 C 420.346 359.907, 408.981 349.233, 403.440 341.468 C 396.589 331.867, 388.144 314.072, 383.503 299.454 C 377.262 279.796, 370.713 269.283, 359.588 261.065 C 347.967 252.480, 337.165 248.972, 322.645 249.066 C 317.065 249.102, 310.025 249.785, 307 250.583 M 311.488 284.354 C 302.937 288.335, 297.613 297.068, 297.670 307.017 C 297.711 314.174, 299.144 317.817, 304.174 323.545 C 319.088 340.531, 348 329.465, 348 306.770 C 348 297.017, 341.407 287.157, 332.355 283.375 C 327.098 281.179, 317.321 281.637, 311.488 284.354 M 421.461 412.878 C 416.437 415.161, 409.355 423.062, 408.017 427.877 C 404.251 441.435, 411.092 454.946, 424.035 459.512 C 435.809 463.667, 449.321 457.949, 454.619 446.571 C 460.576 433.777, 455.133 418.641, 442.500 412.871 C 437.146 410.425, 426.854 410.429, 421.461 412.878 M 503.468 433.349 C 503.431 446.113, 501.760 453.661, 496.508 464.781 C 487.271 484.340, 469.647 498.780, 448.664 503.982 C 441.618 505.729, 437.618 506.104, 428.913 505.836 C 422.910 505.651, 417.998 505.684, 417.999 505.909 C 418.005 507.933, 427.477 517.985, 433.097 521.932 C 439.998 526.778, 442.319 527.819, 464.334 535.934 C 486.884 544.247, 506.709 559.121, 520.296 577.919 C 526.969 587.152, 536.101 604.413, 540.470 616.052 C 545.447 629.312, 550.074 637.106, 557.100 644.068 C 571.593 658.428, 592.916 664.937, 612.201 660.887 C 619.528 659.349, 631.311 653.775, 637.769 648.792 C 655.232 635.320, 664.446 609.943, 659.916 587.799 C 658.385 580.315, 650.968 565.377, 645.962 559.692 C 639.710 552.592, 626.309 544.098, 616.500 541.017 C 608.943 538.643, 586.491 527.183, 577 520.855 C 555.942 506.816, 539.219 483.855, 528.494 454.255 C 524.478 443.172, 518.544 434.206, 510.822 427.558 C 503.223 421.014, 503.504 420.793, 503.468 433.349 M 591.882 574.381 C 578.786 579.061, 572.375 588.426, 573.182 601.698 C 573.660 609.550, 575.900 614.833, 580.847 619.781 C 591.812 630.745, 610.130 629.844, 620.410 617.834 C 629.709 606.970, 628.941 591.810, 618.565 581.435 C 610.961 573.831, 600.880 571.165, 591.882 574.381" stroke="none" fill="currentColor" fill-rule="evenodd"/>
  </g>
</svg>
