<svg xmlns="http://www.w3.org/2000/svg" width="48" height="48" viewBox="0 0 48 48">
  <g transform="translate(2 3.285) scale(0.076)">
    <path d="M 29.208 4.126 C 26.848 5.294, 25.149 6.482, 25.432 6.765 C 26.010 7.344, 58.628 21.069, 66.750 24.151 C 72.147 26.200, 73.243 27.586, 70.345 28.698 C 68.414 29.439, 54.562 26.434, 34.283 20.873 C 15.742 15.790, 16.275 15.576, 9.605 30.807 C 5.489 40.208, 4.812 42.568, 5.591 44.807 C 6.266 46.747, 10.439 50.055, 20.514 56.639 C 41.942 70.641, 48.458 75.422, 48.844 77.428 C 49.374 80.178, 46.808 79.256, 23.995 68.498 C 12.919 63.274, 3.439 59, 2.928 59 C 0.386 59, 4.089 69.051, 7.872 72.417 C 10.441 74.702, 48.841 95.010, 51 95.225 C 51.825 95.307, 55.379 94.277, 58.898 92.937 C 66.269 90.129, 64.390 93.274, 79.776 58 C 92.546 28.724, 91.848 31.466, 88.520 23.635 C 86.652 19.240, 85.017 16.836, 83.610 16.415 C 82.449 16.068, 72.574 12.683, 61.665 8.892 C 39.983 1.358, 35.986 0.771, 29.208 4.126 M 521 30.624 C 516.246 32.723, 468.356 50.795, 448 58.171 C 438.925 61.460, 429.700 65.204, 427.500 66.492 C 423.300 68.950, 399 92.967, 399 94.659 C 399 95.199, 400.496 97.409, 402.325 99.570 C 407.848 106.097, 414.053 115.833, 417.647 123.611 C 423.523 136.329, 424.868 141.701, 427.776 164.065 L 428.500 169.630 443 152.593 C 467.933 123.297, 488.546 103.738, 508.371 90.564 C 518.876 83.584, 537.278 73.958, 547.728 69.977 C 557.598 66.216, 561 62.854, 561 56.858 C 561 54.664, 560.487 51.886, 559.859 50.684 C 557.225 45.640, 541.335 32.603, 535.110 30.378 C 530.290 28.655, 525.259 28.743, 521 30.624 M 109.309 34.128 C 107.553 34.623, 105.251 36.258, 104.193 37.763 C 101.776 41.200, 81.844 87.284, 79.583 94.663 C 79.133 96.133, 80.581 100.785, 84.096 109.163 C 89.047 120.964, 109.223 166.916, 114.980 179.500 C 116.489 182.800, 122.334 196.075, 127.967 209 C 133.600 221.925, 141.274 239.475, 145.019 248 C 148.764 256.525, 154.175 269.125, 157.042 276 C 164.818 294.642, 171.264 305.180, 181.435 315.880 C 201.656 337.152, 227.223 349.383, 256.780 351.925 C 278.572 353.800, 298.550 349.696, 320 338.938 C 329.090 334.379, 342.887 324.244, 340.894 323.591 C 339.057 322.988, 268.071 312.391, 256.500 310.991 C 235.289 308.426, 224.485 303.519, 211.438 290.525 C 198.080 277.220, 191.567 263.149, 190.399 245.067 C 189.401 229.625, 193.315 214.882, 201.888 201.793 C 217.689 177.667, 247.652 165.358, 275.303 171.634 C 283.392 173.470, 287.440 175.194, 329 194.508 C 390.817 223.235, 396.726 225.674, 399.003 223.397 C 401.126 221.274, 410.082 194.528, 411.622 185.715 C 413.674 173.969, 412.971 155.904, 410.018 144.500 C 405.865 128.463, 397.357 114.330, 384.623 102.312 C 375.180 93.400, 364.621 86.991, 352.722 82.950 C 348.200 81.414, 320.650 75.354, 291.500 69.482 C 262.350 63.610, 228.825 56.806, 217 54.361 C 205.175 51.917, 177.725 46.345, 156 41.980 C 134.275 37.615, 115.600 33.860, 114.500 33.637 C 113.400 33.413, 111.064 33.634, 109.309 34.128 M 524 51.921 C 492.949 62.303, 474.906 72.213, 457 88.722 C 452.875 92.525, 448.680 95.942, 447.678 96.315 C 445.118 97.267, 442.587 95.683, 434 87.758 C 429.875 83.951, 425.645 80.371, 424.599 79.802 C 422.341 78.574, 423.796 80.821, 433.263 93.183 C 440.839 103.076, 442.932 104.465, 449.737 104.115 C 451.067 104.047, 455.526 100.646, 460.737 95.725 C 472.030 85.062, 479.992 79.002, 492.994 71.175 C 503.585 64.799, 534.797 49, 536.801 49 C 537.396 49, 538.160 48.550, 538.500 48 C 539.291 46.720, 540.684 46.343, 524 51.921 M 132.500 50.773 C 133.050 51.263, 138.675 53.596, 145 55.956 C 151.325 58.317, 160.325 61.743, 165 63.570 C 169.675 65.397, 182.275 70.258, 193 74.372 C 219.967 84.717, 222 85.645, 222 87.621 C 222 91.379, 230.287 117.751, 232.559 121.226 C 236.670 127.511, 233.644 126.238, 295.500 147.694 C 332.754 160.616, 338.596 162.658, 368 173.036 C 377.625 176.434, 386.468 179.434, 387.652 179.704 C 396.970 181.832, 395.981 158.276, 385.945 139.027 C 374.437 116.958, 356.948 104.869, 327.500 98.627 C 323.650 97.811, 304.427 93.743, 284.781 89.587 C 224.560 76.847, 231.010 78.488, 148.500 54.901 C 140.800 52.700, 133.825 50.670, 133 50.390 C 132.065 50.073, 131.877 50.218, 132.500 50.773 M 272 97.456 C 272 98.644, 272.622 98.882, 274.500 98.411 C 277.661 97.617, 277.649 98.441, 274.444 102.249 C 272.859 104.133, 272.243 105.643, 272.822 106.222 C 274.018 107.418, 279.093 106.822, 278.966 105.500 C 278.912 104.950, 278.223 104.632, 277.434 104.794 C 275.539 105.182, 275.604 103.574, 277.548 101.960 C 280.219 99.744, 278.944 96.543, 275.250 96.187 C 272.821 95.952, 272 96.273, 272 97.456 M 117.804 119.552 C 130.621 132.058, 141.946 143.933, 142.970 145.942 C 145.230 150.372, 145.714 153.080, 147.002 168.500 C 149.955 203.873, 154.909 256.242, 155.342 256.675 C 155.489 256.822, 155.441 233.443, 155.237 204.721 C 154.827 147.241, 154.678 145.708, 148.728 137.816 C 146.938 135.442, 140.023 129.450, 133.361 124.500 C 116.641 112.076, 98.034 98.669, 96.106 97.657 C 95.222 97.193, 104.987 107.046, 117.804 119.552 M 295 99 C 295 99.550, 295.675 100, 296.500 100 C 298.317 100, 298.489 101.628, 296.750 102.359 C 295.858 102.733, 296.007 103.205, 297.271 104.003 C 299.659 105.513, 298.363 107.308, 295.418 106.569 C 293.584 106.108, 293.183 106.315, 293.634 107.488 C 294.334 109.314, 298.566 109.497, 299.676 107.750 C 300.794 105.989, 300.802 100.740, 299.689 99.250 C 298.577 97.762, 295 97.571, 295 99 M 250.419 100.132 C 250.034 100.754, 250.422 101.657, 251.281 102.138 C 252.141 102.618, 253.140 104.359, 253.501 106.006 C 254.544 110.754, 256.283 109.646, 255.473 104.750 C 255.086 102.412, 254.570 100.162, 254.326 99.750 C 253.654 98.614, 251.209 98.853, 250.419 100.132 M 315.766 106.918 L 312.500 109.836 315.183 110.510 C 316.937 110.950, 317.680 111.671, 317.326 112.592 C 316.997 113.450, 317.426 114, 318.424 114 C 320.216 114, 320.539 113.337, 321.467 107.750 C 322.254 103.015, 320.432 102.749, 315.766 106.918 M 317.500 108 C 317.160 108.550, 317.359 109, 317.941 109 C 318.523 109, 319 108.550, 319 108 C 319 107.450, 318.802 107, 318.559 107 C 318.316 107, 317.840 107.450, 317.500 108 M 276.014 113.750 C 276.035 118.071, 277.105 121, 278.662 121 C 279.757 121, 279.945 120.124, 279.467 117.250 C 278.593 111.987, 278.208 111, 277.031 111 C 276.464 111, 276.006 112.237, 276.014 113.750 M 336.543 113.575 C 335.104 115.771, 335.096 116.099, 336.465 116.625 C 339.165 117.661, 338.314 120.117, 335.500 119.411 C 333.979 119.029, 333 119.210, 333 119.873 C 333 121.215, 337.450 122.425, 339.498 121.639 C 341.443 120.893, 341.445 117.108, 339.500 116.362 C 336.968 115.390, 337.815 113.737, 340.500 114.411 C 343.699 115.214, 343.754 113.665, 340.578 112.217 C 338.473 111.258, 337.944 111.436, 336.543 113.575 M 257 114.179 C 257 116.762, 259.479 122, 260.701 122 C 262.374 122, 262.340 120.749, 260.551 116.468 C 259.156 113.130, 257 111.740, 257 114.179 M 295 118.083 C 295 124.691, 297.370 124.344, 297.805 117.672 C 298.046 113.982, 297.783 113, 296.555 113 C 295.352 113, 295 114.152, 295 118.083 M 312.975 120.565 C 311.754 123.778, 311.724 126.711, 312.906 127.442 C 313.920 128.069, 317.154 119.487, 316.246 118.579 C 315.055 117.388, 313.921 118.077, 312.975 120.565 M 330.070 128.116 C 327.868 131.729, 327.423 134, 328.918 134 C 330.657 134, 334.336 126.936, 333.193 125.793 C 332.446 125.046, 331.524 125.733, 330.070 128.116 M 354.239 125.666 C 351.979 126.577, 350.833 129.819, 352 132 C 353.284 134.398, 356.254 134.603, 358.067 132.419 C 359.140 131.126, 359.145 130.461, 358.093 128.777 C 356.928 126.911, 357.005 126.768, 358.903 127.264 C 360.298 127.629, 361 127.342, 361 126.406 C 361 125.017, 356.950 124.574, 354.239 125.666 M 353.597 129.844 C 353.251 130.404, 353.455 131.163, 354.050 131.531 C 355.588 132.481, 356.580 131.180, 355.296 129.896 C 354.578 129.178, 354.019 129.161, 353.597 129.844 M 307.022 136.709 C 304.773 139.849, 303.061 143.074, 303.217 143.876 C 303.471 145.187, 311.659 148.715, 312.451 147.854 C 312.630 147.659, 313.098 143.787, 313.492 139.250 C 314.388 128.927, 312.988 128.377, 307.022 136.709 M 345.687 138.805 C 343.067 141.540, 342.179 144, 343.813 144 C 345.049 144, 350 138.555, 350 137.195 C 350 135.268, 348.562 135.804, 345.687 138.805 M 373.673 138.721 C 373.315 139.300, 373.692 140.329, 374.511 141.009 C 376.854 142.953, 376.301 143.696, 372 144.384 C 368.058 145.014, 366.342 147.005, 369.750 146.994 C 372.417 146.986, 379.001 144.998, 378.995 144.203 C 378.984 142.578, 374.282 137.735, 373.673 138.721 M 360.288 150.971 C 356.678 153.167, 355.590 154.629, 356.945 155.466 C 357.956 156.091, 364.966 152.032, 364.988 150.809 C 365.017 149.170, 363.143 149.235, 360.288 150.971 M 246.276 181.511 C 236.696 183.593, 226.543 189.430, 218.394 197.542 C 194.186 221.638, 194.510 261.677, 219.096 284.522 C 230.794 295.392, 239.270 298.902, 260 301.464 C 267.425 302.382, 290.825 305.786, 312 309.029 C 333.175 312.272, 358.150 316.097, 367.500 317.529 C 398.901 322.337, 402.818 324.081, 420.466 341.115 C 433.307 353.509, 438.738 356.989, 448.334 358.971 C 461.625 361.717, 492.148 354.595, 513.167 343.844 C 532.297 334.060, 544.102 322.653, 556.360 302.108 C 565.892 286.132, 570.859 275.406, 576.728 258.120 C 581.027 245.461, 581.358 243.759, 581.427 234 C 581.511 221.969, 579.916 217.438, 573.103 210.347 C 567.814 204.843, 562.825 202.657, 554.500 202.195 C 547.486 201.807, 539.821 203.495, 503 213.541 C 498.325 214.816, 477.850 220.248, 457.500 225.612 C 421.142 235.195, 420.300 235.364, 409 235.400 C 400.566 235.427, 395.900 234.944, 391.500 233.589 C 386.163 231.946, 345.446 213.391, 297.782 190.881 C 274.973 180.109, 262.866 177.907, 246.276 181.511 M 216.848 224.681 C 214.838 229.663, 214.500 232.227, 214.500 242.500 C 214.500 253.959, 214.646 254.809, 217.743 261.347 C 219.527 265.113, 222.385 269.960, 224.094 272.119 C 228.180 277.278, 238.121 284.231, 245 286.740 C 250.948 288.910, 250.526 288.840, 337 302.026 L 395.500 310.947 403.621 314.958 C 409.984 318.101, 414.154 321.254, 422.889 329.528 C 429.673 335.954, 435.889 340.919, 438.768 342.212 C 448.979 346.797, 471.334 344.167, 493.500 335.773 C 526.229 323.378, 548.851 295.344, 561.504 251.500 C 562.933 246.550, 564.311 239.575, 564.566 236 L 565.031 229.500 563.050 236.137 C 551.378 275.245, 526.643 309.460, 500.395 322.805 C 493.041 326.544, 473.724 332.697, 463.684 334.499 C 445.509 337.760, 438.501 335.461, 424.217 321.557 C 414.083 311.692, 407.534 307.100, 399.029 303.895 C 394.316 302.118, 376.759 299.182, 328 292.014 C 324.425 291.489, 315.425 290.135, 308 289.005 C 300.575 287.875, 284.290 285.406, 271.812 283.519 C 251.257 280.410, 248.445 279.746, 241.910 276.455 C 232.604 271.768, 225.708 264.698, 221.215 255.236 C 218.295 249.088, 217.675 246.549, 217.304 239.215 C 217.008 233.361, 217.352 228.695, 218.350 225.001 C 219.167 221.977, 219.692 219.359, 219.516 219.182 C 219.339 219.006, 218.139 221.481, 216.848 224.681 M 534.033 231.315 C 530.355 233.178, 528.338 236.635, 523.545 249.298 C 521.089 255.787, 517.664 263.887, 515.934 267.298 C 506.637 285.625, 492.332 302.189, 477.293 312.042 C 472.779 314.999, 469.264 317.598, 469.482 317.816 C 470.301 318.634, 483.742 313.725, 490 310.323 C 509.164 299.904, 524.758 280.581, 536.370 252.865 C 538.780 247.113, 541.063 240.991, 541.443 239.262 C 542.684 233.609, 538.456 229.074, 534.033 231.315 M 500.538 240.958 C 499.563 242.035, 496.209 248.673, 493.084 255.708 C 489.959 262.744, 485.671 271.200, 483.557 274.500 C 478.020 283.139, 468.680 294.308, 462.950 299.139 C 460.227 301.435, 458 303.673, 458 304.112 C 458 305.145, 464.195 302.948, 470.989 299.506 C 483.806 293.011, 498.003 274.982, 507.059 253.701 C 510.198 246.324, 510.738 242.138, 508.800 240.200 C 506.963 238.363, 502.517 238.771, 500.538 240.958 M 317.421 356.179 C 295.036 366.849, 266.614 369.962, 241 364.548 C 234.675 363.211, 228.534 361.826, 227.353 361.469 C 225.462 360.898, 225.123 361.313, 224.509 364.945 C 223.607 370.285, 220.256 374.168, 212.757 378.563 C 194.649 389.176, 181.053 404.204, 173.457 422 C 170.303 429.392, 167.043 443.439, 167.017 449.750 L 167 454 182.481 454 L 197.962 454 198.539 451.250 C 200.488 441.955, 201.475 438.946, 204.740 432.343 C 212.059 417.541, 228.748 404.393, 245.114 400.535 C 259.384 397.171, 276.394 399.389, 289.493 406.321 C 303.307 413.631, 316.326 430.752, 320.044 446.500 L 321.697 453.500 350.099 453.500 L 378.500 453.500 378.771 433.225 L 379.042 412.951 376.566 410.475 C 374.114 408.023, 373.919 408, 355.950 408 C 328.218 408, 328.714 408.587, 328 374.937 L 327.500 351.374 317.421 356.179 M 344.441 384.418 C 342.806 385.613, 342.500 387.069, 342.500 393.668 L 342.500 401.500 353.500 401.500 L 364.500 401.500 364.819 397.023 C 365.232 391.208, 364.307 386.450, 362.389 384.532 C 360.337 382.480, 347.208 382.397, 344.441 384.418 M 167 468.372 C 167 469.126, 168.079 473.999, 169.399 479.200 C 177.225 510.052, 201.613 534.302, 233.626 543.062 C 243.628 545.799, 261.311 546.706, 271.807 545.020 C 281.019 543.541, 292.799 539.388, 301.869 534.423 C 308.958 530.542, 313.323 527.195, 321.877 519.077 C 324.835 516.270, 328.210 513.758, 329.377 513.493 C 330.545 513.229, 341.102 512.897, 352.837 512.756 L 374.173 512.500 376.608 509.670 C 379.030 506.853, 379.040 506.748, 378.771 487.170 L 378.500 467.500 349.981 467.235 L 321.462 466.970 320.219 473.521 C 316.183 494.798, 297.879 514.032, 275.500 520.511 C 267.417 522.852, 252.524 522.887, 244 520.586 C 231.337 517.168, 219.174 508.813, 210.388 497.500 C 204.530 489.956, 201.476 483.485, 199.416 474.250 L 197.799 467 182.400 467 C 170.017 467, 167 467.269, 167 468.372 M 336.002 520.498 C 335.187 521.480, 334.912 524.112, 335.204 528.146 C 335.847 537.028, 337.284 537.949, 350.861 538.183 C 365.622 538.437, 366.082 538.372, 368.801 535.654 C 370.861 533.593, 371.205 532.324, 371.131 527.059 C 371.084 523.661, 370.783 520.458, 370.463 519.940 C 370.139 519.415, 362.674 519, 353.563 519 C 340.290 519, 337.013 519.279, 336.002 520.498" stroke="none" fill="currentColor" fill-rule="evenodd"/>
  </g>
</svg>
