<?xml version="1.0" standalone="no"?> <!DOCTYPE svg PUBLIC "-//W3C//DTD SVG 20010904//EN" "http://www.w3.org/TR/2001/REC-SVG-20010904/DTD/svg10.dtd"> <svg version="1.0" xmlns="http://www.w3.org/2000/svg" width="311.000000pt" height="205.000000pt" viewBox="0 0 311.000000 205.000000" preserveAspectRatio="xMidYMid meet"> <g transform="translate(0.000000,205.000000) scale(0.100000,-0.100000)" fill="#ffffff" stroke="none"> <path d="M2155 2031 c-76 -22 -151 -60 -241 -123 -128 -89 -231 -255 -269 -433 -19 -89 -66 -182 -99 -195 -11 -4 -55 -24 -96 -43 -209 -97 -403 -108 -633 -38 -124 39 -210 46 -312 28 -279 -50 -483 -277 -502 -558 -19 -287 163 -540 452 -628 67 -20 101 -24 205 -24 124 0 128 1 264 48 76 26 179 69 229 96 l90 49 201 0 c277 0 417 -24 646 -109 229 -86 407 -110 549 -75 371 92 565 497 402 834 -37 76 -68 118 -139 186 l-54 51 25 39 c13 22 39 83 57 137 31 96 32 102 26 215 -4 65 -15 151 -24 192 -17 73 -19 75 -47 74 -17 0 -64 -1 -106 -2 l-76 -2 -83 -77 c-46 -43 -103 -93 -127 -112 -23 -18 -43 -38 -43 -42 0 -16 -28 -10 -34 7 -4 10 5 25 26 42 17 15 72 65 121 112 l88 85 25 103 c13 57 24 109 24 116 0 7 -49 23 -117 39 -145 33 -329 37 -428 8z m335 -140 c14 -4 26 -14 28 -23 3 -15 -102 -123 -186 -193 -44 -37 -64 -78 -64 -134 1 -78 33 -135 94 -167 33 -17 111 -18 141 -2 12 6 76 60 141 120 65 59 127 108 136 108 21 0 26 -27 29 -138 3 -92 -31 -198 -93 -292 l-42 -65 -165 0 -164 0 -95 -46 c-124 -60 -232 -130 -405 -264 -380 -294 -741 -512 -985 -596 -84 -29 -107 -32 -205 -32 -93 0 -121 4 -182 26 -83 29 -140 67 -199 129 -197 206 -153 537 91 693 123 79 260 91 427 37 193 -62 403 -62 590 -2 49 15 88 25 88 21 0 -16 -134 -135 -235 -210 -168 -123 -172 -127 -159 -148 6 -10 18 -19 27 -21 32 -6 261 163 395 292 173 166 257 296 292 453 30 130 74 215 152 294 64 65 174 133 253 156 43 12 255 15 295 4z m131 -857 c80 -24 121 -48 186 -108 221 -205 178 -555 -88 -709 -143 -83 -298 -75 -585 28 -241 86 -402 115 -647 115 -82 0 -146 4 -143 9 3 4 79 59 168 121 90 63 217 153 283 201 272 197 459 310 570 345 57 18 191 17 256 -2z"/> <path d="M540 824 c-84 -36 -124 -106 -118 -205 3 -58 8 -74 34 -106 66 -82 169 -106 261 -62 111 54 146 207 70 311 -49 67 -166 97 -247 62z m122 -151 c38 -34 12 -93 -41 -93 -34 0 -53 21 -53 57 0 47 57 70 94 36z"/> <path d="M2406 795 c-51 -18 -102 -69 -122 -122 -51 -133 52 -279 196 -277 215 3 281 292 89 388 -59 29 -104 32 -163 11z m112 -160 c23 -29 19 -59 -11 -80 -29 -20 -43 -19 -67 5 -27 27 -26 65 2 84 32 23 54 20 76 -9z"/> </g> </svg>