<svg width="164" height="164" viewBox="0 0 164 164" fill="none" xmlns="http://www.w3.org/2000/svg">
<path d="M0 10C0 4.47715 4.47715 0 10 0H154C159.523 0 164 4.47715 164 10V154C164 159.523 159.523 164 154 164H10C4.47715 164 0 159.523 0 154V10Z" fill="#C6AC8F"/>
<path fill-rule="evenodd" clip-rule="evenodd" d="M131.719 79.6104C144.794 79.8386 155.213 90.3678 154.991 103.128C154.768 115.888 143.987 126.049 130.912 125.82C129.21 125.791 127.554 125.585 125.96 125.225L125.458 125.216L117.681 123.089L107.492 119.427L97.7722 116.769L89.9792 115.637L73.8708 115.355V115.336L71.7683 115.3L71.7732 115.057L71.8542 114.995C71.8636 114.985 71.8752 114.977 71.8874 114.971L73.2556 113.947C73.2677 113.929 73.2831 113.91 73.2986 113.894C73.3213 113.87 73.3465 113.844 73.3933 113.802C73.4217 113.776 73.4494 113.763 73.4685 113.755C73.4793 113.75 73.4793 113.75 73.4831 113.748L73.4988 113.732C73.5079 113.723 73.5255 113.704 73.5466 113.688C73.5729 113.667 73.588 113.651 73.6218 113.621L73.6921 113.566C73.7289 113.534 73.7542 113.517 73.78 113.5C73.7879 113.495 73.7958 113.49 73.8015 113.486C73.8075 113.483 73.8114 113.48 73.8152 113.478C73.8206 113.474 73.824 113.472 73.824 113.472C73.8309 113.464 73.8382 113.458 73.8435 113.453L73.8581 113.438C73.8628 113.43 73.8672 113.421 73.8708 113.415C73.8728 113.412 73.8755 113.408 73.8767 113.406L73.8787 113.402L73.8845 113.394C73.8845 113.394 73.8881 113.388 73.8913 113.385C73.893 113.383 73.8969 113.379 73.9011 113.375L73.905 113.372V113.365L76.0212 111.881L76.2253 111.729L76.2302 111.734L80.8269 108.509L90.7107 101.713L100.107 94.9082L108.51 89.082L115.422 84.7227L115.976 84.5078L119.172 82.8643C119.895 82.4421 120.644 82.057 121.415 81.7109L121.717 81.5557C121.752 81.5372 121.791 81.5292 121.829 81.5293C124.852 80.2397 128.202 79.549 131.719 79.6104ZM130.765 92.2441C124.835 92.1409 119.944 96.8481 119.841 102.758C119.737 108.668 124.461 113.543 130.392 113.646C136.323 113.75 141.215 109.043 141.318 103.133C141.421 97.2229 136.696 92.3477 130.765 92.2441Z" fill="#22333B" fill-opacity="0.96"/>
<path fill-rule="evenodd" clip-rule="evenodd" d="M132.64 36.9053L132.186 38.8594L128.025 42.8848L128.057 42.9199L126.708 44.1592L124.572 46.2256C121.478 47.6133 119.282 50.8144 119.217 54.5781C119.128 59.682 122.989 63.888 127.842 63.9727C130.854 64.0252 133.54 62.4765 135.166 60.0732L137.998 57.8242L140.297 55.748L145.1 51.2861L146.565 51.2607L147.096 53.6846L147.259 62.9258L144.937 69.7783L141.615 75.1885L139.822 77.4092L135.217 76.7539L135.202 76.752L126.862 76.6064L126.838 76.6113L123.408 77.2812L123.391 77.2842L123.377 77.29L119.938 78.4453L119.918 78.4531L119.899 78.4629L115.554 80.8369L113.893 81.5078L106.169 86.5068L97.4929 92.9824L89.7859 98.9551L78.2068 106.94L71.4499 111.437L60.8132 117.46L54.0398 120.983L44.3367 124.558L41.904 125.086L40.7048 125.106C38.9364 125.467 37.0976 125.642 35.2117 125.609C33.9364 125.587 32.6852 125.47 31.4665 125.267L31.1658 125.272L30.5017 125.086C29.5409 124.887 28.6012 124.634 27.6872 124.329C17.3542 121.644 9.80974 112.194 10.0037 101.084C10.2312 88.0551 21.0154 77.6781 34.0906 77.9062C36.2978 77.9448 38.4289 78.2843 40.446 78.8828C45.5508 80.9019 51.4279 82.1014 57.697 82.2109C65.41 82.3456 72.5878 80.8099 78.5046 78.084L77.7283 79.7012L71.9646 85.1533L62.8093 92.124L58.5369 94.8467C58.5049 94.8658 58.4736 94.8856 58.4431 94.9062L58.4333 94.9121C57.6796 95.4293 57.3693 96.3976 57.741 97.2295C58.0542 97.9304 58.7634 98.3373 59.5115 98.3213L59.3845 98.3467C59.4088 98.4731 59.4318 98.6004 59.4538 98.7275L60.3611 98.1484L60.2107 98.1797C60.2365 98.1695 60.2622 98.1588 60.2878 98.1475C60.3764 98.1082 60.461 98.0624 60.5408 98.0127L60.5906 98.0029L65.3015 95L73.9773 88.5244L78.9607 83.8486L78.9519 83.8398L80.6658 82.1904L80.6999 82.082L84.5447 78.6094L89.7947 71.707L93.5808 64.8291L95.8503 55.0586L98.6765 49.1709L102.975 43.7441L107.797 40.2549L113.603 37.2354L117.491 36.1943L128.719 36L132.64 36.9053ZM34.6023 90.5664C28.6712 90.4629 23.7797 95.17 23.6765 101.08C23.5736 106.99 28.2975 111.864 34.2283 111.968C40.1591 112.071 45.0516 107.365 45.155 101.455C45.2582 95.5451 40.5332 90.67 34.6023 90.5664Z" fill="#22333B" fill-opacity="0.96"/>
</svg>
