<svg width="145" height="90" viewBox="0 0 145 90" fill="none" xmlns="http://www.w3.org/2000/svg">
<path fill-rule="evenodd" clip-rule="evenodd" d="M121.719 43.6104C134.794 43.8386 145.213 54.3678 144.991 67.1279C144.768 79.8883 133.987 90.0485 120.912 89.8203C119.21 89.7906 117.554 89.5855 115.96 89.2246L115.458 89.2158L107.681 87.0889L97.4919 83.4268L87.7722 80.7686L79.9792 79.6367L63.8708 79.3555V79.3359L61.7683 79.2998L61.7732 79.0566L61.8542 78.9951C61.8636 78.9854 61.8752 78.9769 61.8874 78.9707L63.2556 77.9473C63.2677 77.9293 63.2831 77.9097 63.2986 77.8936C63.3213 77.8699 63.3465 77.844 63.3933 77.8018C63.4217 77.7762 63.4494 77.7632 63.4685 77.7549C63.4793 77.7502 63.4793 77.7498 63.4831 77.748L63.4988 77.7324C63.5079 77.7228 63.5255 77.7036 63.5466 77.6875C63.5729 77.6675 63.588 77.6512 63.6218 77.6211L63.6921 77.5664C63.7289 77.5341 63.7542 77.5169 63.78 77.5C63.7879 77.4949 63.7958 77.4897 63.8015 77.4863C63.8075 77.4828 63.8114 77.4799 63.8152 77.4775C63.8206 77.4741 63.824 77.4717 63.824 77.4717C63.8309 77.4644 63.8382 77.4582 63.8435 77.4531L63.8581 77.4385C63.8628 77.4304 63.8672 77.4215 63.8708 77.415C63.8728 77.4116 63.8755 77.4084 63.8767 77.4062L63.8787 77.4023L63.8845 77.3936C63.8845 77.3936 63.8881 77.3884 63.8913 77.3848C63.893 77.3828 63.8969 77.3789 63.9011 77.375L63.905 77.3721V77.3652L66.0212 75.8809L66.2253 75.7285L66.2302 75.7344L70.8269 72.5088L80.7107 65.7129L90.1072 58.9082L98.5095 53.082L105.422 48.7227L105.976 48.5078L109.172 46.8643C109.895 46.4421 110.644 46.057 111.415 45.7109L111.717 45.5557C111.752 45.5372 111.791 45.5292 111.829 45.5293C114.852 44.2397 118.202 43.549 121.719 43.6104ZM120.765 56.2441C114.835 56.1409 109.944 60.8481 109.841 66.7578C109.737 72.6678 114.461 77.5429 120.392 77.6465C126.323 77.75 131.215 73.0428 131.318 67.1328C131.421 61.2229 126.696 56.3477 120.765 56.2441Z" fill="#22333B" fill-opacity="0.96"/>
<path fill-rule="evenodd" clip-rule="evenodd" d="M122.64 0.905273L122.186 2.85938L118.025 6.88477L118.057 6.91992L116.708 8.15918L114.572 10.2256C111.478 11.6133 109.282 14.8144 109.217 18.5781C109.128 23.682 112.989 27.888 117.842 27.9727C120.854 28.0252 123.54 26.4765 125.166 24.0732L127.998 21.8242L130.297 19.748L135.1 15.2861L136.565 15.2607L137.096 17.6846L137.259 26.9258L134.937 33.7783L131.615 39.1885L129.822 41.4092L125.217 40.7539L125.202 40.752L116.862 40.6064L116.838 40.6113L113.408 41.2812L113.391 41.2842L113.377 41.29L109.938 42.4453L109.918 42.4531L109.899 42.4629L105.554 44.8369L103.893 45.5078L96.1687 50.5068L87.4929 56.9824L79.7859 62.9551L68.2068 70.9404L61.4499 75.4365L50.8132 81.46L44.0398 84.9834L34.3367 88.5576L31.904 89.0859L30.7048 89.1064C28.9364 89.4665 27.0976 89.6423 25.2117 89.6094C23.9364 89.5871 22.6852 89.4699 21.4665 89.2666L21.1658 89.2725L20.5017 89.0859C19.5409 88.8867 18.6012 88.6337 17.6872 88.3291C7.35416 85.6443 -0.190265 76.1936 0.00365445 65.084C0.231202 52.0551 11.0154 41.6781 24.0906 41.9062C26.2978 41.9448 28.4289 42.2843 30.446 42.8828C35.5508 44.9019 41.4279 46.1014 47.697 46.2109C55.41 46.3456 62.5878 44.8099 68.5046 42.084L67.7283 43.7012L61.9646 49.1533L52.8093 56.124L48.5369 58.8467C48.5049 58.8658 48.4736 58.8856 48.4431 58.9062L48.4333 58.9121C47.6796 59.4293 47.3693 60.3976 47.741 61.2295C48.0542 61.9304 48.7634 62.3373 49.5115 62.3213L49.3845 62.3467C49.4088 62.4731 49.4318 62.6004 49.4538 62.7275L50.3611 62.1484L50.2107 62.1797C50.2365 62.1695 50.2622 62.1588 50.2878 62.1475C50.3764 62.1082 50.461 62.0624 50.5408 62.0127L50.5906 62.0029L55.3015 59L63.9773 52.5244L68.9607 47.8486L68.9519 47.8398L70.6658 46.1904L70.6999 46.082L74.5447 42.6094L79.7947 35.707L83.5808 28.8291L85.8503 19.0586L88.6765 13.1709L92.9753 7.74414L97.7966 4.25488L103.603 1.23535L107.491 0.194336L118.719 0L122.64 0.905273ZM24.6023 54.5664C18.6712 54.4629 13.7797 59.17 13.6765 65.0801C13.5736 70.9898 18.2975 75.8641 24.2283 75.9678C30.1591 76.0713 35.0516 71.3649 35.155 65.4551C35.2582 59.5451 30.5332 54.67 24.6023 54.5664Z" fill="#22333B" fill-opacity="0.96"/>
<path fill-rule="evenodd" clip-rule="evenodd" d="M121.719 43.6104C134.794 43.8386 145.213 54.3678 144.991 67.1279C144.768 79.8883 133.987 90.0485 120.912 89.8203C119.21 89.7906 117.554 89.5855 115.96 89.2246L115.458 89.2158L107.681 87.0889L97.4919 83.4268L87.7722 80.7686L79.9792 79.6367L63.8708 79.3555V79.3359L61.7683 79.2998L61.7732 79.0566L61.8542 78.9951C61.8636 78.9854 61.8752 78.9769 61.8874 78.9707L63.2556 77.9473C63.2677 77.9293 63.2831 77.9097 63.2986 77.8936C63.3213 77.8699 63.3465 77.844 63.3933 77.8018C63.4217 77.7762 63.4494 77.7632 63.4685 77.7549C63.4793 77.7502 63.4793 77.7498 63.4831 77.748L63.4988 77.7324C63.5079 77.7228 63.5255 77.7036 63.5466 77.6875C63.5729 77.6675 63.588 77.6512 63.6218 77.6211L63.6921 77.5664C63.7289 77.5341 63.7542 77.5169 63.78 77.5C63.7879 77.4949 63.7958 77.4897 63.8015 77.4863C63.8075 77.4828 63.8114 77.4799 63.8152 77.4775C63.8206 77.4741 63.824 77.4717 63.824 77.4717C63.8309 77.4644 63.8382 77.4582 63.8435 77.4531L63.8581 77.4385C63.8628 77.4304 63.8672 77.4215 63.8708 77.415C63.8728 77.4116 63.8755 77.4084 63.8767 77.4062L63.8787 77.4023L63.8845 77.3936C63.8845 77.3936 63.8881 77.3884 63.8913 77.3848C63.893 77.3828 63.8969 77.3789 63.9011 77.375L63.905 77.3721V77.3652L66.0212 75.8809L66.2253 75.7285L66.2302 75.7344L70.8269 72.5088L80.7107 65.7129L90.1072 58.9082L98.5095 53.082L105.422 48.7227L105.976 48.5078L109.172 46.8643C109.895 46.4421 110.644 46.057 111.415 45.7109L111.717 45.5557C111.752 45.5372 111.791 45.5292 111.829 45.5293C114.852 44.2397 118.202 43.549 121.719 43.6104ZM120.765 56.2441C114.835 56.1409 109.944 60.8481 109.841 66.7578C109.737 72.6678 114.461 77.5429 120.392 77.6465C126.323 77.75 131.215 73.0428 131.318 67.1328C131.421 61.2229 126.696 56.3477 120.765 56.2441Z" fill="#22333B" fill-opacity="0.96"/>
<path fill-rule="evenodd" clip-rule="evenodd" d="M122.64 0.905273L122.186 2.85938L118.025 6.88477L118.057 6.91992L116.708 8.15918L114.572 10.2256C111.478 11.6133 109.282 14.8144 109.217 18.5781C109.128 23.682 112.989 27.888 117.842 27.9727C120.854 28.0252 123.54 26.4765 125.166 24.0732L127.998 21.8242L130.297 19.748L135.1 15.2861L136.565 15.2607L137.096 17.6846L137.259 26.9258L134.937 33.7783L131.615 39.1885L129.822 41.4092L125.217 40.7539L125.202 40.752L116.862 40.6064L116.838 40.6113L113.408 41.2812L113.391 41.2842L113.377 41.29L109.938 42.4453L109.918 42.4531L109.899 42.4629L105.554 44.8369L103.893 45.5078L96.1687 50.5068L87.4929 56.9824L79.7859 62.9551L68.2068 70.9404L61.4499 75.4365L50.8132 81.46L44.0398 84.9834L34.3367 88.5576L31.904 89.0859L30.7048 89.1064C28.9364 89.4665 27.0976 89.6423 25.2117 89.6094C23.9364 89.5871 22.6852 89.4699 21.4665 89.2666L21.1658 89.2725L20.5017 89.0859C19.5409 88.8867 18.6012 88.6337 17.6872 88.3291C7.35416 85.6443 -0.190265 76.1936 0.00365445 65.084C0.231202 52.0551 11.0154 41.6781 24.0906 41.9062C26.2978 41.9448 28.4289 42.2843 30.446 42.8828C35.5508 44.9019 41.4279 46.1014 47.697 46.2109C55.41 46.3456 62.5878 44.8099 68.5046 42.084L67.7283 43.7012L61.9646 49.1533L52.8093 56.124L48.5369 58.8467C48.5049 58.8658 48.4736 58.8856 48.4431 58.9062L48.4333 58.9121C47.6796 59.4293 47.3693 60.3976 47.741 61.2295C48.0542 61.9304 48.7634 62.3373 49.5115 62.3213L49.3845 62.3467C49.4088 62.4731 49.4318 62.6004 49.4538 62.7275L50.3611 62.1484L50.2107 62.1797C50.2365 62.1695 50.2622 62.1588 50.2878 62.1475C50.3764 62.1082 50.461 62.0624 50.5408 62.0127L50.5906 62.0029L55.3015 59L63.9773 52.5244L68.9607 47.8486L68.9519 47.8398L70.6658 46.1904L70.6999 46.082L74.5447 42.6094L79.7947 35.707L83.5808 28.8291L85.8503 19.0586L88.6765 13.1709L92.9753 7.74414L97.7966 4.25488L103.603 1.23535L107.491 0.194336L118.719 0L122.64 0.905273ZM24.6023 54.5664C18.6712 54.4629 13.7797 59.17 13.6765 65.0801C13.5736 70.9898 18.2975 75.8641 24.2283 75.9678C30.1591 76.0713 35.0516 71.3649 35.155 65.4551C35.2582 59.5451 30.5332 54.67 24.6023 54.5664Z" fill="#22333B" fill-opacity="0.96"/>
</svg>
