<svg width="612" height="95" viewBox="0 0 612 95" fill="none" xmlns="http://www.w3.org/2000/svg">
<path d="M1.15037e-05 92.983V5.71023H36.3921C42.9261 5.71023 48.3949 6.63352 52.7983 8.48011C57.2301 10.3267 60.554 12.9119 62.7699 16.2358C65.0142 19.5597 66.1364 23.4091 66.1364 27.7841C66.1364 31.108 65.4404 34.0767 64.0483 36.6903C62.6563 39.2756 60.7386 41.4205 58.2955 43.125C55.8523 44.8295 53.0256 46.0227 49.8154 46.7046V47.5568C53.3381 47.7273 56.5909 48.679 59.5739 50.4119C62.5852 52.1449 65 54.5597 66.8182 57.6563C68.6364 60.7244 69.5455 64.3608 69.5455 68.5653C69.5455 73.2528 68.3523 77.4432 65.9659 81.1364C63.5796 84.8011 60.1279 87.6989 55.6108 89.8296C51.0938 91.9318 45.6108 92.983 39.1619 92.983H1.15037e-05ZM21.0938 75.9801H34.1335C38.7074 75.9801 42.0739 75.1136 44.233 73.3807C46.4205 71.6477 47.5142 69.233 47.5142 66.1364C47.5142 63.8921 46.9886 61.9602 45.9375 60.3409C44.8864 58.6932 43.3949 57.429 41.4631 56.5483C39.5313 55.6392 37.2159 55.1847 34.5171 55.1847H21.0938V75.9801ZM21.0938 41.5909H32.7699C35.071 41.5909 37.1165 41.2074 38.9063 40.4403C40.696 39.6733 42.0881 38.5653 43.0824 37.1165C44.1051 35.6676 44.6165 33.9205 44.6165 31.875C44.6165 28.9489 43.5796 26.6477 41.5057 24.9716C39.4318 23.2955 36.6335 22.4574 33.1108 22.4574H21.0938V41.5909ZM77.2875 92.983V27.5284H98.1256V92.983H77.2875ZM87.7279 19.9006C84.8017 19.9006 82.2875 18.9347 80.1852 17.0028C78.083 15.0426 77.0318 12.6847 77.0318 9.92898C77.0318 7.2017 78.083 4.87216 80.1852 2.94034C82.2875 0.980115 84.8017 0 87.7279 0C90.6824 0 93.1966 0.980115 95.2705 2.94034C97.3727 4.87216 98.4239 7.2017 98.4239 9.92898C98.4239 12.6847 97.3727 15.0426 95.2705 17.0028C93.1966 18.9347 90.6824 19.9006 87.7279 19.9006ZM127.782 75.8097L127.867 50.9659H130.765L149.174 27.5284H172.782L145.424 61.108H139.927L127.782 75.8097ZM108.989 92.983V5.71023H129.827V92.983H108.989ZM149.642 92.983L132.512 65.7955L146.233 51.0085L173.719 92.983H149.642ZM205.74 94.2188C198.894 94.2188 192.985 92.8693 188.013 90.1705C183.07 87.4432 179.263 83.5653 176.593 78.5369C173.951 73.4801 172.63 67.4716 172.63 60.5114C172.63 53.75 173.965 47.8409 176.635 42.7841C179.306 37.6989 183.07 33.75 187.928 30.9375C192.786 28.0966 198.51 26.6761 205.101 26.6761C209.76 26.6761 214.022 27.4006 217.885 28.8494C221.749 30.2983 225.087 32.4432 227.899 35.2841C230.712 38.125 232.899 41.6335 234.462 45.8097C236.024 49.9574 236.806 54.7159 236.806 60.0852V65.2841H179.916V53.1818H217.416C217.388 50.9659 216.863 48.9915 215.84 47.2585C214.817 45.5256 213.411 44.1761 211.621 43.2102C209.86 42.2159 207.828 41.7188 205.527 41.7188C203.198 41.7188 201.11 42.2443 199.263 43.2955C197.416 44.3182 195.953 45.7244 194.874 47.5142C193.794 49.2756 193.226 51.2784 193.169 53.5227V65.8381C193.169 68.5085 193.695 70.8523 194.746 72.8693C195.797 74.858 197.289 76.4063 199.22 77.5142C201.152 78.6222 203.453 79.1761 206.124 79.1761C207.97 79.1761 209.647 78.9205 211.152 78.4091C212.658 77.8977 213.951 77.1449 215.03 76.1506C216.11 75.1563 216.919 73.9347 217.459 72.4858L236.593 73.0398C235.797 77.3296 234.05 81.0653 231.351 84.2472C228.681 87.4006 225.172 89.858 220.826 91.6193C216.479 93.3523 211.451 94.2188 205.74 94.2188ZM324.267 37.3295H302.96C302.676 35.142 302.094 33.1676 301.213 31.4062C300.333 29.6449 299.168 28.1392 297.719 26.8892C296.27 25.6392 294.551 24.6875 292.563 24.0341C290.602 23.3523 288.429 23.0114 286.043 23.0114C281.81 23.0114 278.159 24.0483 275.091 26.1222C272.051 28.196 269.708 31.1932 268.06 35.1136C266.44 39.0341 265.631 43.7784 265.631 49.3466C265.631 55.142 266.455 60 268.102 63.9205C269.779 67.8125 272.122 70.7528 275.134 72.7415C278.173 74.7017 281.767 75.6818 285.915 75.6818C288.244 75.6818 290.361 75.3835 292.264 74.7869C294.196 74.1903 295.887 73.3239 297.335 72.1875C298.813 71.0227 300.02 69.6165 300.958 67.9688C301.923 66.2926 302.591 64.4034 302.96 62.3011L324.267 62.429C323.898 66.2926 322.776 70.0994 320.901 73.8494C319.054 77.5994 316.512 81.0227 313.273 84.1193C310.034 87.1875 306.085 89.6307 301.426 91.4489C296.796 93.2671 291.483 94.1761 285.489 94.1761C277.591 94.1761 270.517 92.4432 264.267 88.9773C258.046 85.483 253.131 80.3977 249.523 73.7216C245.915 67.0455 244.111 58.9205 244.111 49.3466C244.111 39.7443 245.943 31.6051 249.608 24.929C253.273 18.2528 258.23 13.1818 264.48 9.71591C270.73 6.25 277.733 4.51705 285.489 4.51705C290.773 4.51705 295.659 5.25568 300.148 6.73296C304.637 8.18182 308.585 10.3125 311.994 13.125C315.404 15.9091 318.173 19.3324 320.304 23.3949C322.435 27.4574 323.756 32.1023 324.267 37.3295ZM354.776 55.6534V92.983H333.938V5.71023H354.094V39.5455H354.818C356.295 35.5114 358.71 32.358 362.063 30.0852C365.443 27.8125 369.577 26.6761 374.463 26.6761C379.065 26.6761 383.071 27.6989 386.48 29.7443C389.889 31.7614 392.531 34.6165 394.406 38.3097C396.31 42.0028 397.247 46.321 397.219 51.2642V92.983H376.381V55.3551C376.409 51.7188 375.5 48.8778 373.653 46.8324C371.807 44.7869 369.207 43.7642 365.855 43.7642C363.668 43.7642 361.736 44.2472 360.06 45.2131C358.412 46.1506 357.119 47.5 356.182 49.2614C355.273 51.0227 354.804 53.1534 354.776 55.6534ZM438.423 94.2188C431.577 94.2188 425.667 92.8693 420.696 90.1705C415.753 87.4432 411.946 83.5653 409.275 78.5369C406.633 73.4801 405.312 67.4716 405.312 60.5114C405.312 53.75 406.648 47.8409 409.318 42.7841C411.989 37.6989 415.753 33.75 420.611 30.9375C425.469 28.0966 431.193 26.6761 437.784 26.6761C442.443 26.6761 446.704 27.4006 450.568 28.8494C454.432 30.2983 457.77 32.4432 460.582 35.2841C463.395 38.125 465.582 41.6335 467.145 45.8097C468.707 49.9574 469.489 54.7159 469.489 60.0852V65.2841H412.599V53.1818H450.099C450.071 50.9659 449.545 48.9915 448.523 47.2585C447.5 45.5256 446.094 44.1761 444.304 43.2102C442.542 42.2159 440.511 41.7188 438.21 41.7188C435.881 41.7188 433.792 42.2443 431.946 43.2955C430.099 44.3182 428.636 45.7244 427.557 47.5142C426.477 49.2756 425.909 51.2784 425.852 53.5227V65.8381C425.852 68.5085 426.378 70.8523 427.429 72.8693C428.48 74.858 429.971 76.4063 431.903 77.5142C433.835 78.6222 436.136 79.1761 438.807 79.1761C440.653 79.1761 442.329 78.9205 443.835 78.4091C445.341 77.8977 446.633 77.1449 447.713 76.1506C448.792 75.1563 449.602 73.9347 450.142 72.4858L469.275 73.0398C468.48 77.3296 466.733 81.0653 464.034 84.2472C461.364 87.4006 457.855 89.858 453.508 91.6193C449.162 93.3523 444.133 94.2188 438.423 94.2188ZM508.285 94.2188C501.382 94.2188 495.459 92.7983 490.515 89.9574C485.601 87.1165 481.822 83.1676 479.18 78.1108C476.538 73.0256 475.217 67.1449 475.217 60.4688C475.217 53.7642 476.538 47.8835 479.18 42.8267C481.851 37.7415 485.643 33.7784 490.558 30.9375C495.501 28.0966 501.396 26.6761 508.243 26.6761C514.294 26.6761 519.564 27.7699 524.052 29.9574C528.569 32.1449 532.092 35.2415 534.62 39.2472C537.177 43.2244 538.527 47.8977 538.669 53.2671H519.194C518.797 49.9148 517.66 47.2869 515.785 45.3835C513.939 43.4801 511.524 42.5284 508.541 42.5284C506.126 42.5284 504.01 43.2102 502.192 44.5739C500.373 45.9091 498.953 47.8977 497.93 50.5398C496.936 53.1534 496.439 56.392 496.439 60.2557C496.439 64.1193 496.936 67.3864 497.93 70.0568C498.953 72.6989 500.373 74.7017 502.192 76.0653C504.01 77.4006 506.126 78.0682 508.541 78.0682C510.473 78.0682 512.177 77.6563 513.655 76.8324C515.16 76.0085 516.396 74.8011 517.362 73.2102C518.328 71.5909 518.939 69.6307 519.194 67.3295H538.669C538.47 72.7273 537.12 77.4432 534.62 81.4773C532.149 85.5114 528.669 88.6506 524.18 90.8949C519.72 93.1108 514.422 94.2188 508.285 94.2188ZM565.725 75.8097L565.811 50.9659H568.708L587.117 27.5284H610.725L583.367 61.108H577.87L565.725 75.8097ZM546.933 92.983V5.71023H567.771V92.983H546.933ZM587.586 92.983L570.456 65.7955L584.177 51.0085L611.663 92.983H587.586Z" fill="#22333B"/>
</svg>
