<svg width="612" height="95" viewBox="0 0 612 95" fill="none" xmlns="http://www.w3.org/2000/svg">
<path fill-rule="evenodd" clip-rule="evenodd" d="M205.101 26.6768C209.76 26.6768 214.021 27.4008 217.885 28.8496C221.748 30.2985 225.087 32.4433 227.899 35.2842C230.712 38.1251 232.899 41.6344 234.462 45.8105C236.024 49.9582 236.806 54.7168 236.806 60.0859V65.2842H193.169V65.8389C193.169 68.5092 193.695 70.8532 194.746 72.8701C195.797 74.8584 197.288 76.4068 199.22 77.5146C201.151 78.6225 203.453 79.1767 206.123 79.1768C207.97 79.1768 209.647 78.9205 211.152 78.4092C212.658 77.8979 213.95 77.1454 215.029 76.1514C216.109 75.157 216.919 73.9352 217.459 72.4863L236.592 73.04C235.796 77.3298 234.049 81.0662 231.351 84.248C228.68 87.4013 225.172 89.8588 220.825 91.6201C216.479 93.353 211.45 94.2187 205.74 94.2188C198.894 94.2188 192.984 92.8698 188.013 90.1709C183.07 87.4436 179.262 83.5655 176.592 78.5371C173.95 73.4804 172.629 67.4718 172.629 60.5117C172.629 53.7504 173.964 47.841 176.635 42.7842C179.305 37.6991 183.07 33.75 187.928 30.9375C192.786 28.0968 198.51 26.6768 205.101 26.6768ZM205.527 41.7188C203.198 41.7188 201.109 42.2448 199.263 43.2959C197.416 44.3186 195.953 45.7249 194.873 47.5146C193.848 49.1864 193.286 51.0759 193.183 53.1826H217.416C217.388 50.9667 216.863 48.9917 215.84 47.2588C214.817 45.526 213.411 44.1768 211.621 43.2109C209.86 42.2167 207.828 41.7188 205.527 41.7188Z" fill="#FCFAF9"/>
<path fill-rule="evenodd" clip-rule="evenodd" d="M437.783 26.6768C442.442 26.6768 446.704 27.4008 450.567 28.8496C454.431 30.2985 457.77 32.4433 460.582 35.2842C463.395 38.1251 465.582 41.6344 467.145 45.8105C468.707 49.9582 469.488 54.7168 469.488 60.0859V65.2842H425.852V65.8389C425.852 68.5092 426.378 70.8532 427.429 72.8701C428.48 74.8586 429.972 76.4068 431.903 77.5146C433.835 78.6225 436.136 79.1768 438.807 79.1768C440.653 79.1767 442.329 78.9205 443.835 78.4092C445.341 77.8978 446.633 77.1456 447.713 76.1514C448.792 75.1571 449.602 73.9352 450.142 72.4863L469.275 73.04C468.48 77.3298 466.732 81.0662 464.033 84.248C461.363 87.4012 457.854 89.8588 453.508 91.6201C449.161 93.353 444.133 94.2187 438.423 94.2188C431.576 94.2188 425.667 92.8698 420.695 90.1709C415.752 87.4436 411.946 83.5655 409.275 78.5371C406.633 73.4803 405.312 67.4719 405.312 60.5117C405.312 53.7504 406.647 47.841 409.317 42.7842C411.988 37.699 415.752 33.75 420.61 30.9375C425.468 28.0967 431.193 26.6768 437.783 26.6768ZM438.21 41.7188C435.88 41.7188 433.792 42.2448 431.945 43.2959C430.099 44.3186 428.636 45.725 427.557 47.5146C426.532 49.1864 425.969 51.0758 425.865 53.1826H450.099C450.07 50.9667 449.545 48.9917 448.522 47.2588C447.5 45.5259 446.093 44.1768 444.304 43.2109C442.542 42.2167 440.511 41.7188 438.21 41.7188Z" fill="#FCFAF9"/>
<path d="M508.242 26.6768C514.293 26.6768 519.563 27.7705 524.052 29.958C528.569 32.1455 532.092 35.2424 534.62 39.248C537.177 43.2253 538.526 47.8984 538.668 53.2676H519.194C518.797 49.9153 517.66 47.2872 515.785 45.3838C513.939 43.4805 511.524 42.5294 508.541 42.5293C506.126 42.5293 504.01 43.2107 502.191 44.5742C500.373 45.9094 498.952 47.8981 497.93 50.54C496.935 53.1536 496.438 56.3923 496.438 60.2559C496.438 64.1195 496.935 67.3872 497.93 70.0576C498.952 72.6995 500.373 74.7018 502.191 76.0654C504.01 77.4007 506.126 78.0684 508.541 78.0684C510.473 78.0683 512.177 77.6568 513.654 76.833C515.16 76.0092 516.395 74.8017 517.361 73.2109C518.327 71.5916 518.939 69.6312 519.194 67.3301H538.668C538.469 72.7277 537.12 77.4435 534.62 81.4775C532.149 85.5116 528.668 88.6512 524.18 90.8955C519.72 93.1113 514.421 94.2187 508.285 94.2188C501.382 94.2188 495.458 92.7989 490.515 89.958C485.6 87.1171 481.822 83.1681 479.18 78.1113C476.538 73.0261 475.217 67.1449 475.217 60.4688C475.217 53.7644 476.538 47.8838 479.18 42.8271C481.85 37.7419 485.643 33.7784 490.558 30.9375C495.501 28.0967 501.396 26.6768 508.242 26.6768Z" fill="#FCFAF9"/>
<path d="M285.488 4.51758C290.772 4.51758 295.659 5.25613 300.147 6.7334C304.636 8.18223 308.585 10.3126 311.994 13.125C315.403 15.9091 318.173 19.333 320.304 23.3955C322.434 27.458 323.755 32.1029 324.267 37.3301H302.96C302.676 35.1426 302.094 33.1676 301.213 31.4062C300.332 29.6451 299.167 28.1395 297.719 26.8896C296.27 25.6397 294.551 24.6876 292.562 24.0342C290.602 23.3524 288.428 23.0117 286.042 23.0117C281.809 23.0118 278.159 24.0492 275.091 26.123C272.051 28.1969 269.707 31.1939 268.06 35.1143C266.44 39.0346 265.631 43.7787 265.631 49.3467C265.631 55.1421 266.455 60.0004 268.103 63.9209C269.779 67.8129 272.122 70.7536 275.134 72.7422C278.173 74.7022 281.768 75.6826 285.915 75.6826C288.244 75.6826 290.36 75.3836 292.264 74.7871C294.195 74.1905 295.886 73.3239 297.335 72.1875C298.812 71.0228 300.02 69.6164 300.957 67.9688C301.923 66.2927 302.591 64.4038 302.96 62.3018L324.267 62.4297C323.897 66.2931 322.775 70.0998 320.9 73.8496C319.054 77.5996 316.511 81.0235 313.272 84.1201C310.034 87.1882 306.085 89.6311 301.426 91.4492C296.795 93.2674 291.483 94.1768 285.488 94.1768C277.591 94.1767 270.517 92.4434 264.267 88.9775C258.045 85.4832 253.13 80.3977 249.522 73.7217C245.915 67.0456 244.11 58.9204 244.11 49.3467C244.11 39.7447 245.943 31.6057 249.607 24.9297C253.272 18.2537 258.23 13.1827 264.479 9.7168C270.729 6.25091 277.733 4.5176 285.488 4.51758Z" fill="#FCFAF9"/>
<path fill-rule="evenodd" clip-rule="evenodd" d="M36.3916 5.71094C42.9256 5.71094 48.3945 6.63391 52.7979 8.48047C57.2297 10.3271 60.5536 12.9125 62.7695 16.2363C65.0138 19.5601 66.1357 23.4094 66.1357 27.7842C66.1357 31.1079 65.4398 34.0769 64.0479 36.6904C62.6558 39.2756 60.7381 41.4205 58.2949 43.125C55.8518 44.8295 53.0255 46.0232 49.8154 46.7051V47.5576C53.3379 47.7281 56.5905 48.6793 59.5732 50.4121C62.5844 52.145 64.9992 54.5599 66.8174 57.6562C68.6355 60.7243 69.5449 64.361 69.5449 68.5654C69.5449 73.2529 68.3521 77.4436 65.9658 81.1367C63.5795 84.8015 60.1274 87.6994 55.6104 89.8301C51.0933 91.9323 45.6099 92.9834 39.1611 92.9834H0V5.71094H36.3916ZM21.0938 75.9805H34.1328C38.7067 75.9805 42.0733 75.1138 44.2324 73.3809C46.4199 71.6479 47.5137 69.2333 47.5137 66.1367C47.5137 63.8927 46.9884 61.961 45.9375 60.3418C44.8864 58.6941 43.3946 57.4295 41.4629 56.5488C39.5311 55.6397 37.2155 55.1855 34.5166 55.1855H21.0938V75.9805ZM21.0938 41.5918H32.7695C35.0707 41.5918 37.1165 41.2075 38.9062 40.4404C40.6957 39.6734 42.0878 38.5658 43.082 37.1172C44.1048 35.6683 44.6162 33.9205 44.6162 31.875C44.6161 28.9491 43.5786 26.6477 41.5049 24.9717C39.4311 23.2958 36.6328 22.458 33.1104 22.458H21.0938V41.5918Z" fill="#FCFAF9"/>
<path d="M98.125 92.9834H77.2871V27.5293H98.125V92.9834Z" fill="#FCFAF9"/>
<path d="M129.827 50.9668H130.765L149.174 27.5293H172.781L149.539 56.0566L173.719 92.9834H149.643L134.044 68.2275L129.827 73.333V92.9834H108.988V5.71094H129.827V50.9668Z" fill="#FCFAF9"/>
<path d="M354.094 39.5459H354.817C356.295 35.5118 358.71 32.3587 362.062 30.0859C365.443 27.8133 369.577 26.6768 374.463 26.6768C379.065 26.6768 383.07 27.6997 386.479 29.7451C389.889 31.7622 392.531 34.6174 394.406 38.3105C396.309 42.0036 397.247 46.3217 397.219 51.2646V92.9834H376.38V55.3555C376.408 51.7193 375.5 48.8784 373.653 46.833C371.807 44.7876 369.207 43.7646 365.854 43.7646C363.667 43.7647 361.736 44.248 360.06 45.2139C358.412 46.1513 357.119 47.5004 356.182 49.2617C355.273 51.0231 354.804 53.1543 354.775 55.6543V92.9834H333.938V5.71094H354.094V39.5459Z" fill="#FCFAF9"/>
<path d="M567.771 50.9668H568.708L587.117 27.5293H610.725L587.482 56.0566L611.662 92.9834H587.586L571.987 68.2285L567.771 73.334V92.9834H546.933V5.71094H567.771V50.9668Z" fill="#FCFAF9"/>
<path d="M87.7275 0C90.6821 1.21532e-05 93.1967 0.980212 95.2705 2.94043C97.3728 4.87224 98.4238 7.20243 98.4238 9.92969C98.4238 12.6851 97.3724 15.0428 95.2705 17.0029C93.1967 18.9347 90.6821 19.9014 87.7275 19.9014C84.8014 19.9014 82.2868 18.9347 80.1846 17.0029C78.0826 15.0428 77.0313 12.6851 77.0312 9.92969C77.0312 7.20241 78.0823 4.87224 80.1846 2.94043C82.2868 0.98021 84.8014 0 87.7275 0Z" fill="#FCFAF9"/>
</svg>
