<svg width="811" height="164" viewBox="0 0 811 164" fill="none" xmlns="http://www.w3.org/2000/svg">
<path d="M0 10C0 4.47715 4.47715 0 10 0H154C159.523 0 164 4.47715 164 10V154C164 159.523 159.523 164 154 164H10C4.47715 164 0 159.523 0 154V10Z" fill="#C6AC8F"/>
<path fill-rule="evenodd" clip-rule="evenodd" d="M131.719 79.6104C144.794 79.8386 155.213 90.3678 154.991 103.128C154.768 115.888 143.987 126.049 130.912 125.82C129.21 125.791 127.554 125.585 125.96 125.225L125.458 125.216L117.681 123.089L107.492 119.427L97.7722 116.769L89.9792 115.637L73.8708 115.355V115.336L71.7683 115.3L71.7732 115.057L71.8542 114.995C71.8636 114.985 71.8752 114.977 71.8874 114.971L73.2556 113.947C73.2677 113.929 73.2831 113.91 73.2986 113.894C73.3213 113.87 73.3465 113.844 73.3933 113.802C73.4217 113.776 73.4494 113.763 73.4685 113.755C73.4793 113.75 73.4793 113.75 73.4831 113.748L73.4988 113.732C73.5079 113.723 73.5255 113.704 73.5466 113.688C73.5729 113.667 73.588 113.651 73.6218 113.621L73.6921 113.566C73.7289 113.534 73.7542 113.517 73.78 113.5C73.7879 113.495 73.7958 113.49 73.8015 113.486C73.8075 113.483 73.8114 113.48 73.8152 113.478C73.8206 113.474 73.824 113.472 73.824 113.472C73.8309 113.464 73.8382 113.458 73.8435 113.453L73.8581 113.438C73.8628 113.43 73.8672 113.421 73.8708 113.415C73.8728 113.412 73.8755 113.408 73.8767 113.406L73.8787 113.402L73.8845 113.394C73.8845 113.394 73.8881 113.388 73.8913 113.385C73.893 113.383 73.8969 113.379 73.9011 113.375L73.905 113.372V113.365L76.0212 111.881L76.2253 111.729L76.2302 111.734L80.8269 108.509L90.7107 101.713L100.107 94.9082L108.51 89.082L115.422 84.7227L115.976 84.5078L119.172 82.8643C119.895 82.4421 120.644 82.057 121.415 81.7109L121.717 81.5557C121.752 81.5372 121.791 81.5292 121.829 81.5293C124.852 80.2397 128.202 79.549 131.719 79.6104ZM130.765 92.2441C124.835 92.1409 119.944 96.8481 119.841 102.758C119.737 108.668 124.461 113.543 130.392 113.646C136.323 113.75 141.215 109.043 141.318 103.133C141.421 97.2229 136.696 92.3477 130.765 92.2441Z" fill="#FCFAF9" fill-opacity="0.96"/>
<path fill-rule="evenodd" clip-rule="evenodd" d="M132.64 36.9053L132.186 38.8594L128.025 42.8848L128.057 42.9199L126.708 44.1592L124.572 46.2256C121.478 47.6133 119.282 50.8144 119.217 54.5781C119.128 59.682 122.989 63.888 127.842 63.9727C130.854 64.0252 133.54 62.4765 135.166 60.0732L137.998 57.8242L140.297 55.748L145.1 51.2861L146.565 51.2607L147.096 53.6846L147.259 62.9258L144.937 69.7783L141.615 75.1885L139.822 77.4092L135.217 76.7539L135.202 76.752L126.862 76.6064L126.838 76.6113L123.408 77.2812L123.391 77.2842L123.377 77.29L119.938 78.4453L119.918 78.4531L119.899 78.4629L115.554 80.8369L113.893 81.5078L106.169 86.5068L97.4929 92.9824L89.7859 98.9551L78.2068 106.94L71.4499 111.437L60.8132 117.46L54.0398 120.983L44.3367 124.558L41.904 125.086L40.7048 125.106C38.9364 125.467 37.0976 125.642 35.2117 125.609C33.9364 125.587 32.6852 125.47 31.4665 125.267L31.1658 125.272L30.5017 125.086C29.5409 124.887 28.6012 124.634 27.6872 124.329C17.3542 121.644 9.80974 112.194 10.0037 101.084C10.2312 88.0551 21.0154 77.6781 34.0906 77.9062C36.2978 77.9448 38.4289 78.2843 40.446 78.8828C45.5508 80.9019 51.4279 82.1014 57.697 82.2109C65.41 82.3456 72.5878 80.8099 78.5046 78.084L77.7283 79.7012L71.9646 85.1533L62.8093 92.124L58.5369 94.8467C58.5049 94.8658 58.4736 94.8856 58.4431 94.9062L58.4333 94.9121C57.6796 95.4293 57.3693 96.3976 57.741 97.2295C58.0542 97.9304 58.7634 98.3373 59.5115 98.3213L59.3845 98.3467C59.4088 98.4731 59.4318 98.6004 59.4538 98.7275L60.3611 98.1484L60.2107 98.1797C60.2365 98.1695 60.2622 98.1588 60.2878 98.1475C60.3764 98.1082 60.461 98.0624 60.5408 98.0127L60.5906 98.0029L65.3015 95L73.9773 88.5244L78.9607 83.8486L78.9519 83.8398L80.6658 82.1904L80.6999 82.082L84.5447 78.6094L89.7947 71.707L93.5808 64.8291L95.8503 55.0586L98.6765 49.1709L102.975 43.7441L107.797 40.2549L113.603 37.2354L117.491 36.1943L128.719 36L132.64 36.9053ZM34.6023 90.5664C28.6712 90.4629 23.7797 95.17 23.6765 101.08C23.5736 106.99 28.2975 111.864 34.2283 111.968C40.1591 112.071 45.0516 107.365 45.155 101.455C45.2582 95.5451 40.5332 90.67 34.6023 90.5664Z" fill="#FCFAF9" fill-opacity="0.96"/>
<path fill-rule="evenodd" clip-rule="evenodd" d="M403.706 59.6934C408.365 59.6934 412.627 60.4174 416.49 61.8662C420.354 63.3151 423.692 65.4599 426.505 68.3008C429.317 71.1417 431.505 74.651 433.067 78.8271C434.63 82.9748 435.411 87.7334 435.411 93.1025V98.3008H391.774V98.8555C391.774 101.526 392.3 103.87 393.352 105.887C394.403 107.875 395.894 109.423 397.825 110.531C399.757 111.639 402.058 112.193 404.729 112.193C406.575 112.193 408.252 111.937 409.758 111.426C411.263 110.914 412.555 110.162 413.635 109.168C414.714 108.174 415.525 106.952 416.064 105.503L435.197 106.057C434.402 110.346 432.655 114.083 429.956 117.265C427.286 120.418 423.777 122.875 419.431 124.637C415.084 126.37 410.056 127.235 404.346 127.235C397.499 127.235 391.59 125.886 386.618 123.188C381.675 120.46 377.868 116.582 375.197 111.554C372.555 106.497 371.234 100.488 371.234 93.5283C371.234 86.767 372.57 80.8576 375.24 75.8008C377.911 70.7157 381.675 66.7666 386.533 63.9541C391.391 61.1134 397.115 59.6934 403.706 59.6934ZM404.133 74.7354C401.803 74.7354 399.715 75.2614 397.868 76.3125C396.022 77.3352 394.558 78.7415 393.479 80.5312C392.454 82.203 391.891 84.0925 391.788 86.1992H416.021C415.993 83.9833 415.468 82.0083 414.445 80.2754C413.423 78.5426 412.016 77.1934 410.227 76.2275C408.465 75.2333 406.434 74.7354 404.133 74.7354Z" fill="#FCFAF9"/>
<path fill-rule="evenodd" clip-rule="evenodd" d="M636.389 59.6934C641.048 59.6934 645.309 60.4174 649.173 61.8662C653.036 63.3151 656.375 65.4599 659.188 68.3008C662 71.1417 664.188 74.651 665.75 78.8271C667.312 82.9748 668.094 87.7334 668.094 93.1025V98.3008H624.457V98.8555C624.457 101.526 624.983 103.87 626.034 105.887C627.085 107.875 628.577 109.423 630.509 110.531C632.441 111.639 634.742 112.193 637.412 112.193C639.259 112.193 640.935 111.937 642.44 111.426C643.946 110.914 645.239 110.162 646.318 109.168C647.398 108.174 648.207 106.952 648.747 105.503L667.881 106.057C667.085 110.346 665.338 114.083 662.639 117.265C659.968 120.418 656.46 122.875 652.113 124.637C647.767 126.37 642.738 127.235 637.028 127.235C630.182 127.235 624.272 125.886 619.301 123.188C614.358 120.46 610.551 116.582 607.881 111.554C605.239 106.497 603.917 100.489 603.917 93.5283C603.917 86.767 605.252 80.8576 607.923 75.8008C610.593 70.7156 614.358 66.7666 619.216 63.9541C624.074 61.1133 629.798 59.6934 636.389 59.6934ZM636.815 74.7354C634.486 74.7354 632.397 75.2614 630.551 76.3125C628.704 77.3352 627.242 78.7416 626.162 80.5312C625.137 82.203 624.574 84.0924 624.471 86.1992H648.704C648.676 83.9833 648.151 82.0083 647.128 80.2754C646.105 78.5425 644.699 77.1934 642.909 76.2275C641.148 75.2333 639.116 74.7354 636.815 74.7354Z" fill="#FCFAF9"/>
<path d="M706.848 59.6934C712.899 59.6934 718.169 60.7871 722.657 62.9746C727.174 65.1621 730.697 68.259 733.226 72.2646C735.782 76.2419 737.131 80.915 737.273 86.2842H717.8C717.402 82.9319 716.266 80.3038 714.391 78.4004C712.544 76.4971 710.129 75.546 707.146 75.5459C704.732 75.5459 702.615 76.2273 700.797 77.5908C698.979 78.926 697.558 80.9147 696.535 83.5566C695.541 86.1702 695.044 89.4089 695.044 93.2725C695.044 97.1361 695.541 100.404 696.535 103.074C697.558 105.716 698.979 107.718 700.797 109.082C702.615 110.417 704.732 111.085 707.146 111.085C709.078 111.085 710.783 110.673 712.26 109.85C713.765 109.026 715.001 107.818 715.967 106.228C716.933 104.608 717.544 102.648 717.8 100.347H737.273C737.075 105.744 735.726 110.46 733.226 114.494C730.754 118.528 727.274 121.668 722.785 123.912C718.325 126.128 713.027 127.235 706.891 127.235C699.987 127.235 694.063 125.816 689.12 122.975C684.205 120.134 680.427 116.185 677.785 111.128C675.143 106.043 673.822 100.161 673.822 93.4854C673.822 86.781 675.143 80.9004 677.785 75.8438C680.456 70.7585 684.248 66.795 689.163 63.9541C694.106 61.1133 700.001 59.6934 706.848 59.6934Z" fill="#FCFAF9"/>
<path d="M484.094 37.5342C489.378 37.5342 494.264 38.2727 498.753 39.75C503.241 41.1988 507.191 43.3292 510.6 46.1416C514.009 48.9257 516.778 52.3496 518.909 56.4121C521.04 60.4746 522.361 65.1195 522.872 70.3467H501.565C501.281 68.1592 500.699 66.1842 499.818 64.4229C498.938 62.6617 497.773 61.1561 496.324 59.9062C494.875 58.6563 493.157 57.7042 491.168 57.0508C489.208 56.369 487.034 56.0283 484.647 56.0283C480.415 56.0284 476.764 57.0658 473.696 59.1396C470.657 61.2135 468.313 64.2105 466.665 68.1309C465.046 72.0512 464.236 76.7953 464.236 82.3633C464.236 88.1587 465.06 93.017 466.708 96.9375C468.384 100.829 470.728 103.77 473.739 105.759C476.779 107.719 480.373 108.699 484.521 108.699C486.85 108.699 488.966 108.4 490.869 107.804C492.801 107.207 494.492 106.34 495.94 105.204C497.418 104.039 498.625 102.633 499.562 100.985C500.528 99.3093 501.196 97.4204 501.565 95.3184L522.872 95.4463C522.503 99.3097 521.381 103.116 519.506 106.866C517.659 110.616 515.117 114.04 511.878 117.137C508.639 120.205 504.69 122.648 500.031 124.466C495.401 126.284 490.088 127.193 484.094 127.193C476.196 127.193 469.122 125.46 462.872 121.994C456.651 118.5 451.736 113.414 448.128 106.738C444.52 100.062 442.716 91.937 442.716 82.3633C442.716 72.7613 444.548 64.6223 448.213 57.9463C451.878 51.2703 456.835 46.1993 463.085 42.7334C469.335 39.2675 476.338 37.5342 484.094 37.5342Z" fill="#FCFAF9"/>
<path fill-rule="evenodd" clip-rule="evenodd" d="M234.997 38.7275C241.531 38.7275 247 39.6505 251.403 41.4971C255.835 43.3437 259.159 45.9291 261.375 49.2529C263.619 52.5767 264.741 56.426 264.741 60.8008C264.741 64.1245 264.045 67.0935 262.653 69.707C261.261 72.2922 259.344 74.4371 256.9 76.1416C254.457 77.8461 251.631 79.0398 248.421 79.7217V80.5742C251.943 80.7447 255.196 81.6959 258.179 83.4287C261.19 85.1616 263.605 87.5765 265.423 90.6729C267.241 93.7409 268.15 97.3776 268.15 101.582C268.15 106.269 266.958 110.46 264.571 114.153C262.185 117.818 258.733 120.716 254.216 122.847C249.699 124.949 244.215 126 237.767 126H198.605V38.7275H234.997ZM219.699 108.997H232.738C237.312 108.997 240.679 108.13 242.838 106.397C245.025 104.665 246.119 102.25 246.119 99.1533C246.119 96.9093 245.594 94.9776 244.543 93.3584C243.492 91.7107 242 90.4461 240.068 89.5654C238.137 88.6563 235.821 88.2021 233.122 88.2021H219.699V108.997ZM219.699 74.6084H231.375C233.676 74.6084 235.722 74.2241 237.512 73.457C239.301 72.69 240.693 71.5824 241.688 70.1338C242.71 68.6849 243.222 66.9371 243.222 64.8916C243.222 61.9657 242.184 59.6643 240.11 57.9883C238.037 56.3124 235.238 55.4746 231.716 55.4746H219.699V74.6084Z" fill="#FCFAF9"/>
<path d="M296.73 126H275.893V60.5459H296.73V126Z" fill="#FCFAF9"/>
<path d="M328.433 83.9834H329.37L347.779 60.5459H371.387L348.145 89.0732L372.324 126H348.248L332.649 101.244L328.433 106.35V126H307.594V38.7275H328.433V83.9834Z" fill="#FCFAF9"/>
<path d="M552.699 72.5625H553.423C554.9 68.5284 557.316 65.3753 560.668 63.1025C564.049 60.8299 568.182 59.6934 573.068 59.6934C577.671 59.6934 581.676 60.7163 585.085 62.7617C588.494 64.7788 591.137 67.634 593.012 71.3271C594.915 75.0202 595.853 79.3383 595.824 84.2812V126H574.985V88.3721C575.014 84.7359 574.105 81.895 572.259 79.8496C570.412 77.8042 567.812 76.7812 564.46 76.7812C562.273 76.7813 560.341 77.2646 558.665 78.2305C557.017 79.1679 555.725 80.517 554.787 82.2783C553.878 84.0397 553.409 86.1709 553.381 88.6709V126H532.543V38.7275H552.699V72.5625Z" fill="#FCFAF9"/>
<path d="M766.376 83.9834H767.313L785.723 60.5459H809.33L786.088 89.0732L810.268 126H786.191L770.593 101.245L766.376 106.351V126H745.538V38.7275H766.376V83.9834Z" fill="#FCFAF9"/>
<path d="M286.333 33.0166C289.288 33.0166 291.802 33.9968 293.876 35.957C295.978 37.8888 297.029 40.219 297.029 42.9463C297.029 45.7017 295.978 48.0594 293.876 50.0195C291.802 51.9513 289.288 52.918 286.333 52.918C283.407 52.918 280.892 51.9514 278.79 50.0195C276.688 48.0594 275.637 45.7017 275.637 42.9463C275.637 40.219 276.688 37.8888 278.79 35.957C280.892 33.9968 283.407 33.0166 286.333 33.0166Z" fill="#FCFAF9"/>
</svg>
